  0
SECTION
  2
HEADER
  9
$ACADVER
  1
AC1032
  9
$ACADMAINTVER
 90
4
  9
$DWGCODEPAGE
  3
ANSI_1252
  9
$LASTSAVEDBY
  1
ezdxf
  9
$REQUIREDVERSIONS
160
0
  9
$INSBASE
 10
0.0
 20
0.0
 30
0.0
  9
$EXTMIN
 10
1e+20
 20
1e+20
 30
1e+20
  9
$EXTMAX
 10
-1e+20
 20
-1e+20
 30
-1e+20
  9
$LIMMIN
 10
0.0
 20
0.0
  9
$LIMMAX
 10
420.0
 20
297.0
  9
$ORTHOMODE
 70
0
  9
$REGENMODE
 70
1
  9
$FILLMODE
 70
1
  9
$QTEXTMODE
 70
0
  9
$MIRRTEXT
 70
1
  9
$LTSCALE
 40
1.0
  9
$ATTMODE
 70
1
  9
$TEXTSIZE
 40
2.5
  9
$TRACEWID
 40
1.0
  9
$TEXTSTYLE
  7
Standard
  9
$CLAYER
  8
0
  9
$CELTYPE
  6
ByLayer
  9
$CECOLOR
 62
256
  9
$CELTSCALE
 40
1.0
  9
$DISPSILH
 70
0
  9
$DIMSCALE
 40
1.0
  9
$DIMASZ
 40
2.5
  9
$DIMEXO
 40
0.625
  9
$DIMDLI
 40
3.75
  9
$DIMRND
 40
0.0
  9
$DIMDLE
 40
0.0
  9
$DIMEXE
 40
1.25
  9
$DIMTP
 40
0.0
  9
$DIMTM
 40
0.0
  9
$DIMTXT
 40
2.5
  9
$DIMCEN
 40
2.5
  9
$DIMTSZ
 40
0.0
  9
$DIMTOL
 70
0
  9
$DIMLIM
 70
0
  9
$DIMTIH
 70
0
  9
$DIMTOH
 70
0
  9
$DIMSE1
 70
0
  9
$DIMSE2
 70
0
  9
$DIMTAD
 70
1
  9
$DIMZIN
 70
8
  9
$DIMBLK
  1

  9
$DIMASO
 70
1
  9
$DIMSHO
 70
1
  9
$DIMPOST
  1

  9
$DIMAPOST
  1

  9
$DIMALT
 70
0
  9
$DIMALTD
 70
3
  9
$DIMALTF
 40
0.03937007874
  9
$DIMLFAC
 40
1.0
  9
$DIMTOFL
 70
1
  9
$DIMTVP
 40
0.0
  9
$DIMTIX
 70
0
  9
$DIMSOXD
 70
0
  9
$DIMSAH
 70
0
  9
$DIMBLK1
  1

  9
$DIMBLK2
  1

  9
$DIMSTYLE
  2
ISO-25
  9
$DIMCLRD
 70
0
  9
$DIMCLRE
 70
0
  9
$DIMCLRT
 70
0
  9
$DIMTFAC
 40
1.0
  9
$DIMGAP
 40
0.625
  9
$DIMJUST
 70
0
  9
$DIMSD1
 70
0
  9
$DIMSD2
 70
0
  9
$DIMTOLJ
 70
0
  9
$DIMTZIN
 70
8
  9
$DIMALTZ
 70
0
  9
$DIMALTTZ
 70
0
  9
$DIMUPT
 70
0
  9
$DIMDEC
 70
2
  9
$DIMTDEC
 70
2
  9
$DIMALTU
 70
2
  9
$DIMALTTD
 70
3
  9
$DIMTXSTY
  7
Standard
  9
$DIMAUNIT
 70
0
  9
$DIMADEC
 70
0
  9
$DIMALTRND
 40
0.0
  9
$DIMAZIN
 70
0
  9
$DIMDSEP
 70
44
  9
$DIMATFIT
 70
3
  9
$DIMFRAC
 70
0
  9
$DIMLDRBLK
  1

  9
$DIMLUNIT
 70
2
  9
$DIMLWD
 70
-2
  9
$DIMLWE
 70
-2
  9
$DIMTMOVE
 70
0
  9
$DIMFXL
 40
1.0
  9
$DIMFXLON
 70
0
  9
$DIMJOGANG
 40
0.785398163397
  9
$DIMTFILL
 70
0
  9
$DIMTFILLCLR
 70
0
  9
$DIMARCSYM
 70
0
  9
$DIMLTYPE
  6

  9
$DIMLTEX1
  6

  9
$DIMLTEX2
  6

  9
$DIMTXTDIRECTION
 70
0
  9
$LUNITS
 70
2
  9
$LUPREC
 70
4
  9
$SKETCHINC
 40
1.0
  9
$FILLETRAD
 40
10.0
  9
$AUNITS
 70
0
  9
$AUPREC
 70
2
  9
$MENU
  1
.
  9
$ELEVATION
 40
0.0
  9
$PELEVATION
 40
0.0
  9
$THICKNESS
 40
0.0
  9
$LIMCHECK
 70
0
  9
$CHAMFERA
 40
0.0
  9
$CHAMFERB
 40
0.0
  9
$CHAMFERC
 40
0.0
  9
$CHAMFERD
 40
0.0
  9
$SKPOLY
 70
0
  9
$TDCREATE
 40
2461285.722777778
  9
$TDUCREATE
 40
2458532.153996898
  9
$TDUPDATE
 40
2461285.722777778
  9
$TDUUPDATE
 40
2458532.1544311
  9
$TDINDWG
 40
0.0
  9
$TDUSRTIMER
 40
0.0
  9
$USRTIMER
 70
1
  9
$ANGBASE
 50
0.0
  9
$ANGDIR
 70
0
  9
$PDMODE
 70
0
  9
$PDSIZE
 40
0.0
  9
$PLINEWID
 40
0.0
  9
$SPLFRAME
 70
0
  9
$SPLINETYPE
 70
6
  9
$SPLINESEGS
 70
8
  9
$HANDSEED
  5
BF
  9
$SURFTAB1
 70
6
  9
$SURFTAB2
 70
6
  9
$SURFTYPE
 70
6
  9
$SURFU
 70
6
  9
$SURFV
 70
6
  9
$UCSBASE
  2

  9
$UCSNAME
  2

  9
$UCSORG
 10
0.0
 20
0.0
 30
0.0
  9
$UCSXDIR
 10
1.0
 20
0.0
 30
0.0
  9
$UCSYDIR
 10
0.0
 20
1.0
 30
0.0
  9
$UCSORTHOREF
  2

  9
$UCSORTHOVIEW
 70
0
  9
$UCSORGTOP
 10
0.0
 20
0.0
 30
0.0
  9
$UCSORGBOTTOM
 10
0.0
 20
0.0
 30
0.0
  9
$UCSORGLEFT
 10
0.0
 20
0.0
 30
0.0
  9
$UCSORGRIGHT
 10
0.0
 20
0.0
 30
0.0
  9
$UCSORGFRONT
 10
0.0
 20
0.0
 30
0.0
  9
$UCSORGBACK
 10
0.0
 20
0.0
 30
0.0
  9
$PUCSBASE
  2

  9
$PUCSNAME
  2

  9
$PUCSORG
 10
0.0
 20
0.0
 30
0.0
  9
$PUCSXDIR
 10
1.0
 20
0.0
 30
0.0
  9
$PUCSYDIR
 10
0.0
 20
1.0
 30
0.0
  9
$PUCSORTHOREF
  2

  9
$PUCSORTHOVIEW
 70
0
  9
$PUCSORGTOP
 10
0.0
 20
0.0
 30
0.0
  9
$PUCSORGBOTTOM
 10
0.0
 20
0.0
 30
0.0
  9
$PUCSORGLEFT
 10
0.0
 20
0.0
 30
0.0
  9
$PUCSORGRIGHT
 10
0.0
 20
0.0
 30
0.0
  9
$PUCSORGFRONT
 10
0.0
 20
0.0
 30
0.0
  9
$PUCSORGBACK
 10
0.0
 20
0.0
 30
0.0
  9
$USERI1
 70
0
  9
$USERI2
 70
0
  9
$USERI3
 70
0
  9
$USERI4
 70
0
  9
$USERI5
 70
0
  9
$USERR1
 40
0.0
  9
$USERR2
 40
0.0
  9
$USERR3
 40
0.0
  9
$USERR4
 40
0.0
  9
$USERR5
 40
0.0
  9
$WORLDVIEW
 70
1
  9
$SHADEDGE
 70
3
  9
$SHADEDIF
 70
70
  9
$TILEMODE
 70
1
  9
$MAXACTVP
 70
64
  9
$PINSBASE
 10
0.0
 20
0.0
 30
0.0
  9
$PLIMCHECK
 70
0
  9
$PEXTMIN
 10
1e+20
 20
1e+20
 30
1e+20
  9
$PEXTMAX
 10
-1e+20
 20
-1e+20
 30
-1e+20
  9
$PLIMMIN
 10
0.0
 20
0.0
  9
$PLIMMAX
 10
420.0
 20
297.0
  9
$UNITMODE
 70
0
  9
$VISRETAIN
 70
1
  9
$PLINEGEN
 70
0
  9
$PSLTSCALE
 70
1
  9
$TREEDEPTH
 70
3020
  9
$CMLSTYLE
  2
Standard
  9
$CMLJUST
 70
0
  9
$CMLSCALE
 40
20.0
  9
$PROXYGRAPHICS
 70
1
  9
$MEASUREMENT
 70
1
  9
$CELWEIGHT
370
-1
  9
$ENDCAPS
280
0
  9
$JOINSTYLE
280
0
  9
$LWDISPLAY
290
0
  9
$INSUNITS
 70
6
  9
$HYPERLINKBASE
  1

  9
$STYLESHEET
  1

  9
$XEDIT
290
1
  9
$CEPSNTYPE
380
0
  9
$PSTYLEMODE
290
1
  9
$FINGERPRINTGUID
  2
{308F3FD4-FEE2-4CA1-A45A-6E6C17B49E70}
  9
$VERSIONGUID
  2
{253B39CC-30FD-47F7-B9AC-57C72DCFFC8B}
  9
$EXTNAMES
290
1
  9
$PSVPSCALE
 40
0.0
  9
$OLESTARTUP
290
0
  9
$SORTENTS
280
127
  9
$INDEXCTL
280
0
  9
$HIDETEXT
280
1
  9
$XCLIPFRAME
280
1
  9
$HALOGAP
280
0
  9
$OBSCOLOR
 70
257
  9
$OBSLTYPE
280
0
  9
$INTERSECTIONDISPLAY
280
0
  9
$INTERSECTIONCOLOR
 70
257
  9
$DIMASSOC
280
2
  9
$PROJECTNAME
  1

  9
$CAMERADISPLAY
290
0
  9
$LENSLENGTH
 40
50.0
  9
$CAMERAHEIGHT
 40
0.0
  9
$STEPSPERSEC
 40
24.0
  9
$STEPSIZE
 40
100.0
  9
$3DDWFPREC
 40
2.0
  9
$PSOLWIDTH
 40
0.005
  9
$PSOLHEIGHT
 40
0.08
  9
$LOFTANG1
 40
1.570796326795
  9
$LOFTANG2
 40
1.570796326795
  9
$LOFTMAG1
 40
0.0
  9
$LOFTMAG2
 40
0.0
  9
$LOFTPARAM
 70
7
  9
$LOFTNORMALS
280
1
  9
$LATITUDE
 40
37.795
  9
$LONGITUDE
 40
-122.394
  9
$NORTHDIRECTION
 40
0.0
  9
$TIMEZONE
 70
-8000
  9
$LIGHTGLYPHDISPLAY
280
1
  9
$TILEMODELIGHTSYNCH
280
1
  9
$CMATERIAL
347
20
  9
$SOLIDHIST
280
0
  9
$SHOWHIST
280
1
  9
$DWFFRAME
280
2
  9
$DGNFRAME
280
2
  9
$REALWORLDSCALE
290
1
  9
$INTERFERECOLOR
 62
256
  9
$CSHADOW
280
0
  9
$SHADOWPLANELOCATION
 40
0.0
  0
ENDSEC
  0
SECTION
  2
CLASSES
  0
CLASS
  1
ACDBDICTIONARYWDFLT
  2
AcDbDictionaryWithDefault
  3
ObjectDBX Classes
 90
0
 91
0
280
0
281
0
  0
CLASS
  1
SUN
  2
AcDbSun
  3
SCENEOE
 90
1153
 91
0
280
0
281
0
  0
CLASS
  1
VISUALSTYLE
  2
AcDbVisualStyle
  3
ObjectDBX Classes
 90
4095
 91
0
280
0
281
0
  0
CLASS
  1
MATERIAL
  2
AcDbMaterial
  3
ObjectDBX Classes
 90
1153
 91
0
280
0
281
0
  0
CLASS
  1
SCALE
  2
AcDbScale
  3
ObjectDBX Classes
 90
1153
 91
0
280
0
281
0
  0
CLASS
  1
TABLESTYLE
  2
AcDbTableStyle
  3
ObjectDBX Classes
 90
4095
 91
0
280
0
281
0
  0
CLASS
  1
MLEADERSTYLE
  2
AcDbMLeaderStyle
  3
ACDB_MLEADERSTYLE_CLASS
 90
4095
 91
0
280
0
281
0
  0
CLASS
  1
DICTIONARYVAR
  2
AcDbDictionaryVar
  3
ObjectDBX Classes
 90
0
 91
0
280
0
281
0
  0
CLASS
  1
CELLSTYLEMAP
  2
AcDbCellStyleMap
  3
ObjectDBX Classes
 90
1152
 91
0
280
0
281
0
  0
CLASS
  1
MENTALRAYRENDERSETTINGS
  2
AcDbMentalRayRenderSettings
  3
SCENEOE
 90
1024
 91
0
280
0
281
0
  0
CLASS
  1
ACDBDETAILVIEWSTYLE
  2
AcDbDetailViewStyle
  3
ObjectDBX Classes
 90
1025
 91
0
280
0
281
0
  0
CLASS
  1
ACDBSECTIONVIEWSTYLE
  2
AcDbSectionViewStyle
  3
ObjectDBX Classes
 90
1025
 91
0
280
0
281
0
  0
CLASS
  1
RASTERVARIABLES
  2
AcDbRasterVariables
  3
ISM
 90
0
 91
0
280
0
281
0
  0
CLASS
  1
LAYOUT
  2
AcDbLayout
  3
ObjectDBX Classes
 90
0
 91
0
280
0
281
0
  0
CLASS
  1
ACDBPLACEHOLDER
  2
AcDbPlaceHolder
  3
ObjectDBX Classes
 90
0
 91
0
280
0
281
0
  0
ENDSEC
  0
SECTION
  2
TABLES
  0
TABLE
  2
VPORT
  5
8
330
0
100
AcDbSymbolTable
 70
1
  0
VPORT
  5
23
330
8
100
AcDbSymbolTableRecord
100
AcDbViewportTableRecord
  2
*Active
 70
0
 10
0.0
 20
0.0
 11
1.0
 21
1.0
 12
0.0
 22
0.0
 13
0.0
 23
0.0
 14
0.5
 24
0.5
 15
0.5
 25
0.5
 16
0.0
 26
0.0
 36
1.0
 17
0.0
 27
0.0
 37
0.0
 40
1000.0
 41
1.34
 42
50.0
 43
0.0
 44
0.0
 50
0.0
 51
0.0
 71
0
 72
1000
 73
1
 74
3
 75
0
 76
0
 77
0
 78
0
281
0
 65
0
146
0.0
  0
ENDTAB
  0
TABLE
  2
LTYPE
  5
2
330
0
100
AcDbSymbolTable
 70
3
  0
LTYPE
  5
24
330
2
100
AcDbSymbolTableRecord
100
AcDbLinetypeTableRecord
  2
ByBlock
 70
0
  3

 72
65
 73
0
 40
0.0
  0
LTYPE
  5
25
330
2
100
AcDbSymbolTableRecord
100
AcDbLinetypeTableRecord
  2
ByLayer
 70
0
  3

 72
65
 73
0
 40
0.0
  0
LTYPE
  5
26
330
2
100
AcDbSymbolTableRecord
100
AcDbLinetypeTableRecord
  2
Continuous
 70
0
  3

 72
65
 73
0
 40
0.0
  0
ENDTAB
  0
TABLE
  2
LAYER
  5
1
330
0
100
AcDbSymbolTable
 70
19
  0
LAYER
  5
27
330
1
100
AcDbSymbolTableRecord
100
AcDbLayerTableRecord
  2
0
 70
0
 62
7
  6
Continuous
370
-3
390
13
347
21
  0
LAYER
  5
28
330
1
100
AcDbSymbolTableRecord
100
AcDbLayerTableRecord
  2
Defpoints
 70
0
 62
7
  6
Continuous
290
0
370
-3
390
13
347
21
  0
LAYER
  5
2F
330
1
100
AcDbSymbolTableRecord
100
AcDbLayerTableRecord
  2
PCB_OUTLINE
 70
0
 62
7
  6
Continuous
370
-3
390
13
347
21
  0
LAYER
  5
30
330
1
100
AcDbSymbolTableRecord
100
AcDbLayerTableRecord
  2
SINK_AREA
 70
0
 62
3
  6
Continuous
370
-3
390
13
347
21
  0
LAYER
  5
31
330
1
100
AcDbSymbolTableRecord
100
AcDbLayerTableRecord
  2
KEEPOUT_BOT
 70
0
 62
1
  6
Continuous
370
-3
390
13
347
21
  0
LAYER
  5
32
330
1
100
AcDbSymbolTableRecord
100
AcDbLayerTableRecord
  2
SOLDER_WINDOW_TOP
 70
0
 62
2
  6
Continuous
370
-3
390
13
347
21
  0
LAYER
  5
33
330
1
100
AcDbSymbolTableRecord
100
AcDbLayerTableRecord
  2
POSITIONING_PINS
 70
0
 62
5
  6
Continuous
370
-3
390
13
347
21
  0
LAYER
  5
34
330
1
100
AcDbSymbolTableRecord
100
AcDbLayerTableRecord
  2
CLIPS
 70
0
 62
6
  6
Continuous
370
-3
390
13
347
21
  0
LAYER
  5
35
330
1
100
AcDbSymbolTableRecord
100
AcDbLayerTableRecord
  2
FIXTURE_OUTLINE
 70
0
 62
4
  6
Continuous
370
-3
390
13
347
21
  0
LAYER
  5
36
330
1
100
AcDbSymbolTableRecord
100
AcDbLayerTableRecord
  2
HANDHOLDS
 70
0
 62
6
  6
Continuous
370
-3
390
13
347
21
  0
LAYER
  5
37
330
1
100
AcDbSymbolTableRecord
100
AcDbLayerTableRecord
  2
RAILS
 70
0
 62
8
  6
Continuous
370
-3
390
13
347
21
  0
LAYER
  5
38
330
1
100
AcDbSymbolTableRecord
100
AcDbLayerTableRecord
  2
SOLDER_BARRIERS
 70
0
 62
30
  6
Continuous
370
-3
390
13
347
21
  0
LAYER
  5
39
330
1
100
AcDbSymbolTableRecord
100
AcDbLayerTableRecord
  2
BARRIER_MOUNT_HOLES
 70
0
 62
30
  6
Continuous
370
-3
390
13
347
21
  0
LAYER
  5
3A
330
1
100
AcDbSymbolTableRecord
100
AcDbLayerTableRecord
  2
PCB_DRILL
 70
0
 62
9
  6
Continuous
370
-3
390
13
347
21
  0
LAYER
  5
3B
330
1
100
AcDbSymbolTableRecord
100
AcDbLayerTableRecord
  2
SPRING_CLIPS
 70
0
 62
41
  6
Continuous
370
-3
390
13
347
21
  0
LAYER
  5
3C
330
1
100
AcDbSymbolTableRecord
100
AcDbLayerTableRecord
  2
PRESSURE_RELIEF
 70
0
 62
40
  6
Continuous
370
-3
390
13
347
21
  0
LAYER
  5
3D
330
1
100
AcDbSymbolTableRecord
100
AcDbLayerTableRecord
  2
TOOLING_HOLES
 70
0
 62
8
  6
Continuous
370
-3
390
13
347
21
  0
LAYER
  5
3E
330
1
100
AcDbSymbolTableRecord
100
AcDbLayerTableRecord
  2
FIDUCIALS
 70
0
 62
5
  6
Continuous
370
-3
390
13
347
21
  0
LAYER
  5
3F
330
1
100
AcDbSymbolTableRecord
100
AcDbLayerTableRecord
  2
DIMENSIONS
 70
0
 62
7
  6
Continuous
370
-3
390
13
347
21
  0
ENDTAB
  0
TABLE
  2
STYLE
  5
5
330
0
100
AcDbSymbolTable
 70
1
  0
STYLE
  5
29
330
5
100
AcDbSymbolTableRecord
100
AcDbTextStyleTableRecord
  2
Standard
 70
0
 40
0.0
 41
1.0
 50
0.0
 71
0
 42
2.5
  3
txt
  4

  0
ENDTAB
  0
TABLE
  2
VIEW
  5
7
330
0
100
AcDbSymbolTable
 70
0
  0
ENDTAB
  0
TABLE
  2
UCS
  5
6
330
0
100
AcDbSymbolTable
 70
0
  0
ENDTAB
  0
TABLE
  2
APPID
  5
3
330
0
100
AcDbSymbolTable
 70
3
  0
APPID
  5
2A
330
3
100
AcDbSymbolTableRecord
100
AcDbRegAppTableRecord
  2
ACAD
 70
0
  0
APPID
  5
BC
330
3
100
AcDbSymbolTableRecord
100
AcDbRegAppTableRecord
  2
HATCHBACKGROUNDCOLOR
 70
0
  0
APPID
  5
BD
330
3
100
AcDbSymbolTableRecord
100
AcDbRegAppTableRecord
  2
EZDXF
 70
0
  0
ENDTAB
  0
TABLE
  2
DIMSTYLE
  5
4
330
0
100
AcDbSymbolTable
 70
2
100
AcDbDimStyleTable
  0
DIMSTYLE
105
2B
330
4
100
AcDbSymbolTableRecord
100
AcDbDimStyleTableRecord
  2
Standard
 70
0
 40
1.0
 41
2.5
 42
0.625
 43
3.75
 44
1.25
 45
0.0
 46
0.0
 47
0.0
 48
0.0
 49
2.5
140
2.5
141
2.5
142
0.0
143
0.03937007874
144
1.0
145
0.0
146
1.0
147
0.625
148
0.0
 69
0
 70
0
 71
0
 72
0
 73
0
 74
0
 75
0
 76
0
 77
1
 78
8
 79
3
170
0
171
3
172
1
173
0
174
0
175
0
176
0
177
0
178
0
179
2
271
2
272
2
273
2
274
3
275
0
276
0
277
2
278
44
279
0
280
0
281
0
282
0
283
0
284
8
285
0
286
0
288
0
289
3
290
0
371
-2
372
-2
  0
DIMSTYLE
105
58
330
4
100
AcDbSymbolTableRecord
100
AcDbDimStyleTableRecord
  2
FIXTURE_DIM
 70
0
 40
1.0
 41
1.5
 42
0.625
 43
3.75
 44
1.25
 45
0.0
 46
0.0
 47
0.0
 48
0.0
 49
2.5
140
2.5
141
2.5
142
0.0
143
0.03937007874
144
1.0
145
0.0
146
1.0
147
0.625
148
0.0
 69
0
 70
0
 71
0
 72
0
 73
0
 74
0
 75
0
 76
0
 77
1
 78
8
 79
3
170
0
171
3
172
1
173
0
174
0
175
0
176
7
177
7
178
7
179
2
271
2
272
2
273
2
274
3
275
0
276
0
277
2
278
44
279
0
280
0
281
0
282
0
283
0
284
8
285
0
286
0
288
0
289
3
290
0
371
-2
372
-2
  0
ENDTAB
  0
TABLE
  2
BLOCK_RECORD
  5
9
330
0
100
AcDbSymbolTable
 70
7
  0
BLOCK_RECORD
  5
17
330
9
100
AcDbSymbolTableRecord
100
AcDbBlockTableRecord
  2
*Model_Space
340
1A
 70
0
280
1
281
0
  0
BLOCK_RECORD
  5
1B
330
9
100
AcDbSymbolTableRecord
100
AcDbBlockTableRecord
  2
*Paper_Space
340
1E
 70
0
280
1
281
0
  0
BLOCK_RECORD
  5
5A
330
9
100
AcDbSymbolTableRecord
100
AcDbBlockTableRecord
  2
*D1
340
0
 70
0
280
1
281
0
  0
BLOCK_RECORD
  5
5F
330
9
100
AcDbSymbolTableRecord
100
AcDbBlockTableRecord
  2
_CLOSEDFILLED
340
0
 70
0
280
1
281
0
  0
BLOCK_RECORD
  5
6E
330
9
100
AcDbSymbolTableRecord
100
AcDbBlockTableRecord
  2
*D2
340
0
 70
0
280
1
281
0
  0
BLOCK_RECORD
  5
7E
330
9
100
AcDbSymbolTableRecord
100
AcDbBlockTableRecord
  2
*D3
340
0
 70
0
280
1
281
0
  0
BLOCK_RECORD
  5
8E
330
9
100
AcDbSymbolTableRecord
100
AcDbBlockTableRecord
  2
*D4
340
0
 70
0
280
1
281
0
  0
ENDTAB
  0
ENDSEC
  0
SECTION
  2
BLOCKS
  0
BLOCK
  5
18
330
17
100
AcDbEntity
  8
0
100
AcDbBlockBegin
  2
*Model_Space
 70
0
 10
0.0
 20
0.0
 30
0.0
  3
*Model_Space
  1

  0
ENDBLK
  5
19
330
17
100
AcDbEntity
  8
0
100
AcDbBlockEnd
  0
BLOCK
  5
1C
330
1B
100
AcDbEntity
  8
0
100
AcDbBlockBegin
  2
*Paper_Space
 70
0
 10
0.0
 20
0.0
 30
0.0
  3
*Paper_Space
  1

  0
ENDBLK
  5
1D
330
1B
100
AcDbEntity
  8
0
100
AcDbBlockEnd
  0
BLOCK
  5
5B
330
5A
100
AcDbEntity
  8
0
100
AcDbBlockBegin
  2
*D1
 70
1
 10
0.0
 20
0.0
 30
0.0
  3
*D1
  1

  0
LINE
  5
5D
330
5A
100
AcDbEntity
  8
0
 62
7
100
AcDbLine
 10
-25.0
 20
-35.0
 30
0.0
 11
-25.0
 21
-43.0
 31
0.0
  0
LINE
  5
5E
330
5A
100
AcDbEntity
  8
0
 62
7
100
AcDbLine
 10
50.0
 20
-35.0
 30
0.0
 11
50.0
 21
-43.0
 31
0.0
  0
INSERT
  5
63
330
5A
100
AcDbEntity
  8
0
 62
7
100
AcDbBlockReference
  2
_CLOSEDFILLED
 10
-25.0
 20
-43.0
 30
0.0
 41
1.5
 42
1.5
 50
180.0
  0
INSERT
  5
65
330
5A
100
AcDbEntity
  8
0
 62
7
100
AcDbBlockReference
  2
_CLOSEDFILLED
 10
50.0
 20
-43.0
 30
0.0
 41
1.5
 42
1.5
  0
LINE
  5
67
330
5A
100
AcDbEntity
  8
0
 62
7
100
AcDbLine
 10
-23.5
 20
-43.0
 30
0.0
 11
10.0
 21
-43.0
 31
0.0
  0
LINE
  5
68
330
5A
100
AcDbEntity
  8
0
 62
7
100
AcDbLine
 10
15.0
 20
-43.0
 30
0.0
 11
48.5
 21
-43.0
 31
0.0
  0
MTEXT
  5
69
330
5A
100
AcDbEntity
  8
0
 62
7
100
AcDbMText
 10
12.5
 20
-43.0
 30
0.0
 40
2.5
 71
5
  1
75
  0
POINT
  5
6A
330
5A
100
AcDbEntity
  8
Defpoints
100
AcDbPoint
 10
-25.0
 20
-43.0
 30
0.0
  0
POINT
  5
6B
330
5A
100
AcDbEntity
  8
Defpoints
100
AcDbPoint
 10
-25.0
 20
-35.0
 30
0.0
  0
POINT
  5
6C
330
5A
100
AcDbEntity
  8
Defpoints
100
AcDbPoint
 10
50.0
 20
-35.0
 30
0.0
  0
ENDBLK
  5
5C
330
5A
100
AcDbEntity
  8
0
100
AcDbBlockEnd
  0
BLOCK
  5
60
330
5F
100
AcDbEntity
  8
0
100
AcDbBlockBegin
  2
_CLOSEDFILLED
 70
0
 10
0.0
 20
0.0
 30
0.0
  3
_CLOSEDFILLED
  1

  0
SOLID
  5
62
330
5F
100
AcDbEntity
  8
0
  6
BYBLOCK
 62
0
100
AcDbTrace
 10
-1.0
 20
0.16439898372402537
 30
0.0
 11
0.0
 21
0.0
 31
0.0
 12
-1.0
 22
-0.16439898372402537
 32
0.0
 13
-1.0
 23
-0.16439898372402537
 33
0.0
  0
ENDBLK
  5
61
330
5F
100
AcDbEntity
  8
0
100
AcDbBlockEnd
  0
BLOCK
  5
6F
330
6E
100
AcDbEntity
  8
0
100
AcDbBlockBegin
  2
*D2
 70
1
 10
0.0
 20
0.0
 30
0.0
  3
*D2
  1

  0
LINE
  5
71
330
6E
100
AcDbEntity
  8
0
 62
7
100
AcDbLine
 10
50.0
 20
-35.0
 30
0.0
 11
58.0
 21
-35.0
 31
0.0
  0
LINE
  5
72
330
6E
100
AcDbEntity
  8
0
 62
7
100
AcDbLine
 10
50.0
 20
85.0
 30
0.0
 11
58.0
 21
85.0
 31
0.0
  0
INSERT
  5
73
330
6E
100
AcDbEntity
  8
0
 62
7
100
AcDbBlockReference
  2
_CLOSEDFILLED
 10
58.0
 20
-35.0
 30
0.0
 41
1.5
 42
1.5
 50
270.0
  0
INSERT
  5
75
330
6E
100
AcDbEntity
  8
0
 62
7
100
AcDbBlockReference
  2
_CLOSEDFILLED
 10
58.0
 20
85.0
 30
0.0
 41
1.5
 42
1.5
 50
90.0
  0
LINE
  5
77
330
6E
100
AcDbEntity
  8
0
 62
7
100
AcDbLine
 10
58.0
 20
-33.5
 30
0.0
 11
58.0
 21
21.25
 31
0.0
  0
LINE
  5
78
330
6E
100
AcDbEntity
  8
0
 62
7
100
AcDbLine
 10
58.0
 20
28.75
 30
0.0
 11
58.0
 21
83.5
 31
0.0
  0
MTEXT
  5
79
330
6E
100
AcDbEntity
  8
0
 62
7
100
AcDbMText
 10
58.0
 20
25.0
 30
0.0
 40
2.5
 71
5
  1
120
 50
90.0
  0
POINT
  5
7A
330
6E
100
AcDbEntity
  8
Defpoints
100
AcDbPoint
 10
58.0
 20
-35.0
 30
0.0
  0
POINT
  5
7B
330
6E
100
AcDbEntity
  8
Defpoints
100
AcDbPoint
 10
50.0
 20
-35.0
 30
0.0
  0
POINT
  5
7C
330
6E
100
AcDbEntity
  8
Defpoints
100
AcDbPoint
 10
50.0
 20
85.0
 30
0.0
  0
ENDBLK
  5
70
330
6E
100
AcDbEntity
  8
0
100
AcDbBlockEnd
  0
BLOCK
  5
7F
330
7E
100
AcDbEntity
  8
0
100
AcDbBlockBegin
  2
*D3
 70
1
 10
0.0
 20
0.0
 30
0.0
  3
*D3
  1

  0
LINE
  5
81
330
7E
100
AcDbEntity
  8
0
 62
7
100
AcDbLine
 10
0.0
 20
48.26
 30
0.0
 11
0.0
 21
53.26
 31
0.0
  0
LINE
  5
82
330
7E
100
AcDbEntity
  8
0
 62
7
100
AcDbLine
 10
25.654
 20
48.26
 30
0.0
 11
25.654
 21
53.26
 31
0.0
  0
INSERT
  5
83
330
7E
100
AcDbEntity
  8
0
 62
7
100
AcDbBlockReference
  2
_CLOSEDFILLED
 10
0.0
 20
53.26
 30
0.0
 41
1.5
 42
1.5
 50
180.0
  0
INSERT
  5
85
330
7E
100
AcDbEntity
  8
0
 62
7
100
AcDbBlockReference
  2
_CLOSEDFILLED
 10
25.654
 20
53.26
 30
0.0
 41
1.5
 42
1.5
  0
LINE
  5
87
330
7E
100
AcDbEntity
  8
0
 62
7
100
AcDbLine
 10
1.5
 20
53.26
 30
0.0
 11
6.577
 21
53.26
 31
0.0
  0
LINE
  5
88
330
7E
100
AcDbEntity
  8
0
 62
7
100
AcDbLine
 10
19.076999999999998
 20
53.26
 30
0.0
 11
24.154
 21
53.26
 31
0.0
  0
MTEXT
  5
89
330
7E
100
AcDbEntity
  8
0
 62
7
100
AcDbMText
 10
12.827
 20
53.26
 30
0.0
 40
2.5
 71
5
  1
25,65
  0
POINT
  5
8A
330
7E
100
AcDbEntity
  8
Defpoints
100
AcDbPoint
 10
0.0
 20
53.26
 30
0.0
  0
POINT
  5
8B
330
7E
100
AcDbEntity
  8
Defpoints
100
AcDbPoint
 10
0.0
 20
48.26
 30
0.0
  0
POINT
  5
8C
330
7E
100
AcDbEntity
  8
Defpoints
100
AcDbPoint
 10
25.654
 20
48.26
 30
0.0
  0
ENDBLK
  5
80
330
7E
100
AcDbEntity
  8
0
100
AcDbBlockEnd
  0
BLOCK
  5
8F
330
8E
100
AcDbEntity
  8
0
100
AcDbBlockBegin
  2
*D4
 70
1
 10
0.0
 20
0.0
 30
0.0
  3
*D4
  1

  0
LINE
  5
91
330
8E
100
AcDbEntity
  8
0
 62
7
100
AcDbLine
 10
0.0
 20
0.0
 30
0.0
 11
-5.0
 21
0.0
 31
0.0
  0
LINE
  5
92
330
8E
100
AcDbEntity
  8
0
 62
7
100
AcDbLine
 10
0.0
 20
48.26
 30
0.0
 11
-5.0
 21
48.26
 31
0.0
  0
INSERT
  5
93
330
8E
100
AcDbEntity
  8
0
 62
7
100
AcDbBlockReference
  2
_CLOSEDFILLED
 10
-5.0
 20
0.0
 30
0.0
 41
1.5
 42
1.5
 50
270.0
  0
INSERT
  5
95
330
8E
100
AcDbEntity
  8
0
 62
7
100
AcDbBlockReference
  2
_CLOSEDFILLED
 10
-5.0
 20
48.26
 30
0.0
 41
1.5
 42
1.5
 50
90.0
  0
LINE
  5
97
330
8E
100
AcDbEntity
  8
0
 62
7
100
AcDbLine
 10
-5.0
 20
1.5
 30
0.0
 11
-5.0
 21
17.880000000000003
 31
0.0
  0
LINE
  5
98
330
8E
100
AcDbEntity
  8
0
 62
7
100
AcDbLine
 10
-5.0
 20
30.379999999999995
 30
0.0
 11
-5.0
 21
46.76
 31
0.0
  0
MTEXT
  5
99
330
8E
100
AcDbEntity
  8
0
 62
7
100
AcDbMText
 10
-5.0
 20
24.13
 30
0.0
 40
2.5
 71
5
  1
48,26
 50
90.0
  0
POINT
  5
9A
330
8E
100
AcDbEntity
  8
Defpoints
100
AcDbPoint
 10
-5.0
 20
0.0
 30
0.0
  0
POINT
  5
9B
330
8E
100
AcDbEntity
  8
Defpoints
100
AcDbPoint
 10
0.0
 20
0.0
 30
0.0
  0
POINT
  5
9C
330
8E
100
AcDbEntity
  8
Defpoints
100
AcDbPoint
 10
0.0
 20
48.26
 30
0.0
  0
ENDBLK
  5
90
330
8E
100
AcDbEntity
  8
0
100
AcDbBlockEnd
  0
ENDSEC
  0
SECTION
  2
ENTITIES
  0
LWPOLYLINE
  5
40
330
17
100
AcDbEntity
  8
PCB_OUTLINE
100
AcDbPolyline
 90
6
 70
1
 10
0.127
 20
48.26
 10
25.654
 20
48.26
 10
25.654
 20
0.0
 10
0.0
 20
0.0
 10
0.0
 20
48.26
 10
0.127
 20
48.26
  0
LWPOLYLINE
  5
41
330
17
100
AcDbEntity
  8
SINK_AREA
100
AcDbPolyline
 90
189
 70
1
 10
25.854
 20
1.8383225650528647
 10
26.01491709572984
 20
1.8144527687459764
 10
26.191026652920755
 20
1.7703396211045865
 10
26.361964349875418
 20
1.7091771351458804
 10
26.526083963128094
 20
1.631554339044457
 10
26.681804931086262
 20
1.5382187827597091
 10
26.827627575702746
 20
1.4300693387210632
 10
26.962147545195112
 20
1.3081475451951132
 10
27.08406933872106
 20
1.173627575702745
 10
27.19221878275971
 20
1.027804931086264
 10
27.285554339044456
 20
0.8720839631280962
 10
27.36317713514588
 20
0.7079643498754172
 10
27.424339621104586
 20
0.5370266529207557
 10
27.468452768745976
 20
0.36091709572983816
 10
27.495091744343565
 20
0.18133170960968695
 10
27.504
 20
0.0
 10
27.495091744343565
 20
-0.18133170960968711
 10
27.468452768745976
 20
-0.36091709572983727
 10
27.424339621104586
 20
-0.5370266529207554
 10
27.363177135145882
 20
-0.7079643498754161
 10
27.285554339044456
 20
-0.8720839631280957
 10
27.19221878275971
 20
-1.027804931086264
 10
27.084069338721065
 20
-1.1736275757027441
 10
26.962147545195112
 20
-1.308147545195113
 10
26.827627575702746
 20
-1.4300693387210632
 10
26.681804931086265
 20
-1.5382187827597087
 10
26.526083963128094
 20
-1.6315543390444567
 10
26.361964349875414
 20
-1.7091771351458807
 10
26.191026652920755
 20
-1.7703396211045865
 10
26.01491709572984
 20
-1.8144527687459764
 10
25.835331709609687
 20
-1.8410917443435642
 10
25.654
 20
-1.85
 10
25.472668290390313
 20
-1.8410917443435644
 10
25.29308290427016
 20
-1.8144527687459764
 10
25.116973347079245
 20
-1.7703396211045865
 10
24.946035650124585
 20
-1.7091771351458807
 10
24.781916036871905
 20
-1.631554339044457
 10
24.626195068913738
 20
-1.538218782759709
 10
24.480372424297258
 20
-1.4300693387210637
 10
24.345852454804888
 20
-1.308147545195113
 10
24.223930661278935
 20
-1.1736275757027441
 10
24.11578121724029
 20
-1.027804931086264
 10
24.022445660955544
 20
-0.872083963128096
 10
23.944822864854117
 20
-0.7079643498754163
 10
23.883660378895414
 20
-0.5370266529207555
 10
23.839547231254024
 20
-0.36091709572983793
 10
23.815677434947133
 20
-0.20000000000000004
 10
1.8383225650528647
 20
-0.20000000000000004
 10
1.8144527687459764
 20
-0.36091709572983727
 10
1.7703396211045863
 20
-0.5370266529207554
 10
1.7091771351458807
 20
-0.7079643498754161
 10
1.631554339044457
 20
-0.8720839631280957
 10
1.5382187827597087
 20
-1.027804931086264
 10
1.4300693387210635
 20
-1.1736275757027441
 10
1.308147545195113
 20
-1.308147545195113
 10
1.1736275757027441
 20
-1.4300693387210632
 10
1.0278049310862643
 20
-1.5382187827597087
 10
0.872083963128096
 20
-1.6315543390444567
 10
0.7079643498754162
 20
-1.7091771351458807
 10
0.5370266529207554
 20
-1.7703396211045865
 10
0.36091709572983743
 20
-1.8144527687459764
 10
0.18133170960968745
 20
-1.8410917443435642
 10
0.0
 20
-1.85
 10
-0.1813317096096872
 20
-1.8410917443435644
 10
-0.36091709572983716
 20
-1.8144527687459764
 10
-0.537026652920755
 20
-1.7703396211045865
 10
-0.707964349875416
 20
-1.7091771351458807
 10
-0.8720839631280958
 20
-1.631554339044457
 10
-1.0278049310862636
 20
-1.538218782759709
 10
-1.173627575702744
 20
-1.4300693387210637
 10
-1.3081475451951128
 20
-1.308147545195113
 10
-1.4300693387210635
 20
-1.1736275757027441
 10
-1.538218782759709
 20
-1.027804931086264
 10
-1.6315543390444567
 20
-0.872083963128096
 10
-1.7091771351458807
 20
-0.7079643498754163
 10
-1.7703396211045863
 20
-0.5370266529207555
 10
-1.8144527687459764
 20
-0.36091709572983793
 10
-1.8410917443435642
 20
-0.18133170960968753
 10
-1.85
 20
0.0
 10
-1.8410917443435644
 20
0.1813317096096871
 10
-1.8144527687459764
 20
0.3609170957298375
 10
-1.7703396211045865
 20
0.5370266529207549
 10
-1.7091771351458807
 20
0.7079643498754159
 10
-1.631554339044457
 20
0.8720839631280957
 10
-1.5382187827597091
 20
1.0278049310862636
 10
-1.4300693387210637
 20
1.173627575702744
 10
-1.3081475451951132
 20
1.3081475451951128
 10
-1.173627575702745
 20
1.4300693387210628
 10
-1.027804931086264
 20
1.5382187827597087
 10
-0.8720839631280961
 20
1.6315543390444567
 10
-0.7079643498754171
 20
1.7091771351458802
 10
-0.5370266529207556
 20
1.7703396211045863
 10
-0.36091709572983804
 20
1.8144527687459762
 10
-0.20000000000000004
 20
1.8383225650528645
 10
-0.20000000000000004
 20
46.421677434947135
 10
-0.36091709572983716
 20
46.445547231254025
 10
-0.537026652920755
 20
46.48966037889541
 10
-0.707964349875416
 20
46.55082286485412
 10
-0.8720839631280958
 20
46.62844566095554
 10
-1.0278049310862636
 20
46.72178121724029
 10
-1.173627575702744
 20
46.82993066127894
 10
-1.3081475451951128
 20
46.951852454804886
 10
-1.4300693387210635
 20
47.08637242429725
 10
-1.538218782759709
 20
47.23219506891373
 10
-1.6315543390444567
 20
47.3879160368719
 10
-1.7091771351458807
 20
47.55203565012458
 10
-1.7703396211045863
 20
47.72297334707924
 10
-1.8144527687459764
 20
47.89908290427016
 10
-1.8410917443435642
 20
48.07866829039031
 10
-1.85
 20
48.26
 10
-1.8410917443435644
 20
48.441331709609685
 10
-1.8144527687459764
 20
48.62091709572984
 10
-1.7703396211045865
 20
48.797026652920756
 10
-1.7091771351458807
 20
48.967964349875416
 10
-1.631554339044457
 20
49.132083963128096
 10
-1.5382187827597091
 20
49.287804931086264
 10
-1.4300693387210637
 20
49.433627575702744
 10
-1.3081475451951132
 20
49.56814754519511
 10
-1.173627575702745
 20
49.69006933872106
 10
-1.027804931086264
 20
49.798218782759704
 10
-0.8720839631280961
 20
49.891554339044454
 10
-0.7079643498754171
 20
49.96917713514588
 10
-0.5370266529207556
 20
50.03033962110459
 10
-0.36091709572983804
 20
50.07445276874597
 10
-0.18133170960968684
 20
50.10109174434356
 10
0.0
 20
50.11
 10
0.18133170960968617
 20
50.10109174434356
 10
0.3609170957298374
 20
50.07445276874597
 10
0.5370266529207548
 20
50.03033962110459
 10
0.7079643498754166
 20
49.96917713514588
 10
0.8720839631280956
 20
49.891554339044454
 10
1.0278049310862634
 20
49.798218782759704
 10
1.1736275757027443
 20
49.69006933872106
 10
1.3081475451951126
 20
49.56814754519511
 10
1.4300693387210628
 20
49.433627575702744
 10
1.5382187827597087
 20
49.287804931086264
 10
1.6315543390444565
 20
49.132083963128096
 10
1.7091771351458802
 20
48.967964349875416
 10
1.7703396211045863
 20
48.797026652920756
 10
1.8144527687459762
 20
48.62091709572984
 10
1.8383225650528643
 20
48.46
 10
23.815677434947133
 20
48.46
 10
23.839547231254024
 20
48.62091709572984
 10
23.883660378895414
 20
48.797026652920756
 10
23.944822864854117
 20
48.967964349875416
 10
24.022445660955544
 20
49.132083963128096
 10
24.11578121724029
 20
49.287804931086264
 10
24.223930661278935
 20
49.433627575702744
 10
24.345852454804888
 20
49.56814754519511
 10
24.480372424297254
 20
49.69006933872106
 10
24.626195068913734
 20
49.798218782759704
 10
24.781916036871905
 20
49.891554339044454
 10
24.946035650124582
 20
49.96917713514588
 10
25.116973347079245
 20
50.03033962110459
 10
25.29308290427016
 20
50.07445276874597
 10
25.472668290390313
 20
50.10109174434356
 10
25.654
 20
50.11
 10
25.835331709609687
 20
50.10109174434356
 10
26.01491709572984
 20
50.07445276874597
 10
26.191026652920755
 20
50.03033962110459
 10
26.361964349875418
 20
49.96917713514588
 10
26.526083963128094
 20
49.891554339044454
 10
26.681804931086262
 20
49.798218782759704
 10
26.827627575702746
 20
49.69006933872106
 10
26.962147545195112
 20
49.56814754519511
 10
27.08406933872106
 20
49.433627575702744
 10
27.19221878275971
 20
49.287804931086264
 10
27.285554339044456
 20
49.132083963128096
 10
27.36317713514588
 20
48.967964349875416
 10
27.424339621104586
 20
48.797026652920756
 10
27.468452768745976
 20
48.62091709572984
 10
27.495091744343565
 20
48.441331709609685
 10
27.504
 20
48.26
 10
27.495091744343565
 20
48.07866829039031
 10
27.468452768745976
 20
47.89908290427016
 10
27.424339621104586
 20
47.72297334707924
 10
27.363177135145882
 20
47.55203565012458
 10
27.285554339044456
 20
47.3879160368719
 10
27.19221878275971
 20
47.23219506891373
 10
27.084069338721065
 20
47.08637242429725
 10
26.962147545195112
 20
46.951852454804886
 10
26.827627575702746
 20
46.82993066127894
 10
26.681804931086265
 20
46.72178121724029
 10
26.526083963128094
 20
46.62844566095554
 10
26.361964349875414
 20
46.55082286485412
 10
26.191026652920755
 20
46.48966037889541
 10
26.01491709572984
 20
46.445547231254025
 10
25.854
 20
46.421677434947135
 10
25.854
 20
1.8383225650528647
  0
LWPOLYLINE
  5
42
330
17
100
AcDbEntity
  8
SOLDER_WINDOW_TOP
100
AcDbPolyline
 90
139
 70
1
 10
1.4068135348654838
 20
7.772740908758966
 10
1.3871864651345167
 20
7.772740908758966
 10
1.0482922024450607
 20
7.789389716289844
 10
1.0287596424194716
 20
7.791313505537922
 10
0.6931291167381642
 20
7.841099591012874
 10
0.6738791756485836
 20
7.844928642366922
 10
0.34474469241204386
 20
7.9273725385669795
 10
0.32596275771425376
 20
7.933069976169284
 10
0.006494061919258928
 20
8.04737770330562
 10
-0.011638986088354702
 20
8.054888657717537
 10
-0.3183652362619439
 20
8.199959369890875
 10
-0.33567476641453137
 20
8.209211506515508
 10
-0.6267046295039183
 20
8.383648093463895
 10
-0.6430239415637601
 20
8.394552309167821
 10
-0.91555464089429
 20
8.596674851202208
 10
-0.9307265709652075
 20
8.609126132427345
 10
-1.1821334869218916
 20
8.836988078976521
 10
-1.1960119210234796
 20
8.850866513078108
 10
-1.423873867572655
 20
9.102273429034792
 10
-1.436325148797792
 20
9.117445359105709
 10
-1.6384476908321792
 20
9.389976058436238
 10
-1.6493519065361049
 20
9.40629537049608
 10
-1.8237884934844917
 20
9.697325233585467
 10
-1.833040630109126
 20
9.714634763738056
 10
-1.9781113422824628
 20
10.021361013911646
 10
-1.9856222966943782
 20
10.039494061919257
 10
-2.099930023830716
 20
10.35896275771425
 10
-2.105627461433021
 20
10.377744692412042
 10
-2.188071357633078
 20
10.706879175648583
 10
-2.1919004089871255
 20
10.726129116738162
 10
-2.241686494462077
 20
11.06175964241947
 10
-2.2436102837101553
 20
11.081292202445061
 10
-2.2602590912410347
 20
11.420186465134517
 10
-2.2605000000000004
 20
11.43
 10
-2.2605000000000004
 20
31.75
 10
-2.2602590912410347
 20
31.759813534865483
 10
-2.2436102837101553
 20
32.098707797554944
 10
-2.2416864944620767
 20
32.11824035758053
 10
-2.1919004089871255
 20
32.453870883261835
 10
-2.188071357633078
 20
32.47312082435141
 10
-2.1056274614330213
 20
32.802255307587956
 10
-2.0999300238307166
 20
32.82103724228575
 10
-1.9856222966943786
 20
33.14050593808074
 10
-1.9781113422824632
 20
33.158638986088356
 10
-1.8330406301091264
 20
33.465365236261945
 10
-1.8237884934844917
 20
33.48267476641453
 10
-1.6493519065361049
 20
33.77370462950392
 10
-1.6384476908321801
 20
33.79002394156376
 10
-1.4363251487977928
 20
34.06255464089429
 10
-1.423873867572654
 20
34.07772657096521
 10
-1.1960119210234792
 20
34.32913348692189
 10
-1.182133486921893
 20
34.343011921023475
 10
-0.9307265709652102
 20
34.57087386757265
 10
-0.9283026488709867
 20
34.57303519734418
 10
2.567187302798925
 20
37.63926700906855
 10
2.57993531077562
 20
37.649556960522155
 10
2.8284249795072176
 20
37.8338494590799
 10
2.844744291567056
 20
37.844753674783824
 10
3.1101012383173936
 20
38.003802507858246
 10
3.1274107684699888
 20
38.013054644482885
 10
3.407079460783
 20
38.14532808486652
 10
3.4252125087906053
 20
38.15283903927843
 10
3.7164995842768596
 20
38.2570632214324
 10
3.735281518974655
 20
38.2627606590347
 10
4.035381723863503
 20
38.33793184711009
 10
4.054631664953082
 20
38.34176089846414
 10
4.360654870219987
 20
38.387155152827056
 10
4.380187430245581
 20
38.38907894207514
 10
4.6891864651345205
 20
38.40425909124103
 10
4.708813534865479
 20
38.40425909124103
 10
5.017812569754417
 20
38.38907894207514
 10
5.037345129780011
 20
38.387155152827056
 10
5.343368335046917
 20
38.34176089846414
 10
5.362618276136496
 20
38.33793184711009
 10
5.662718481025343
 20
38.2627606590347
 10
5.681500415723134
 20
38.2570632214324
 10
5.972787491209389
 20
38.15283903927844
 10
5.990920539217003
 20
38.14532808486652
 10
6.270589231530014
 20
38.01305464448288
 10
6.287898761682602
 20
38.003802507858246
 10
6.553255708432939
 20
37.84475367478383
 10
6.569575020492784
 20
37.83384945907991
 10
6.818064689224381
 20
37.649556960522155
 10
6.8332366192952945
 20
37.637105679297015
 10
7.062465918659992
 20
37.42934435276158
 10
7.0763443527615815
 20
37.41546591866
 10
7.284105679297018
 20
37.1862366192953
 10
7.29317912199051
 20
37.17548913871227
 10
8.69017912199051
 20
35.397489138712274
 10
8.693556960522157
 20
35.39306468922438
 10
8.877849459079904
 20
35.14457502049278
 10
8.888753674783828
 20
35.12825570843294
 10
9.047802507858243
 20
34.8628987616826
 10
9.057054644482877
 20
34.84558923153001
 10
9.189328084866519
 20
34.565920539217004
 10
9.196839039278435
 20
34.54778749120939
 10
9.301063221432392
 20
34.25650041572314
 10
9.306760659034696
 20
34.23771848102535
 10
9.381931847110092
 20
33.9376182761365
 10
9.38576089846414
 20
33.91836833504692
 10
9.431155152827056
 20
33.61234512978002
 10
9.433078942075134
 20
33.59281256975443
 10
9.448259091241034
 20
33.28381353486549
 10
9.4485
 20
33.274
 10
9.4485
 20
28.829
 10
9.448259091241034
 20
28.819186465134518
 10
9.433078942075134
 20
28.510187430245576
 10
9.431155152827056
 20
28.490654870219988
 10
9.38576089846414
 20
28.184631664953084
 10
9.381931847110092
 20
28.1653817238635
 10
9.306760659034696
 20
27.865281518974655
 10
9.306690580763469
 20
27.86500260178528
 10
4.8995573831617945
 20
10.377465775222666
 10
4.893930023830716
 20
10.35896275771425
 10
4.779622296694378
 20
10.039494061919257
 10
4.772111342282463
 20
10.021361013911646
 10
4.627040630109127
 20
9.714634763738058
 10
4.617788493484492
 20
9.697325233585468
 10
4.443351906536105
 20
9.40629537049608
 10
4.432447690832179
 20
9.389976058436238
 10
4.2303251487977915
 20
9.117445359105709
 10
4.217873867572655
 20
9.102273429034792
 10
3.99001192102348
 20
8.850866513078108
 10
3.976133486921892
 20
8.836988078976521
 10
3.724726570965208
 20
8.609126132427345
 10
3.7095546408942903
 20
8.596674851202208
 10
3.437023941563761
 20
8.394552309167821
 10
3.420704629503919
 20
8.383648093463895
 10
3.1296747664145315
 20
8.209211506515508
 10
3.1123652362619443
 20
8.199959369890875
 10
2.8056389860883555
 20
8.054888657717537
 10
2.787505938080742
 20
8.04737770330562
 10
2.4680372422857473
 20
7.933069976169284
 10
2.449255307587957
 20
7.9273725385669795
 10
2.1201208243514165
 20
7.844928642366922
 10
2.1008708832618357
 20
7.841099591012874
 10
1.7652403575805284
 20
7.791313505537923
 10
1.7457077975549402
 20
7.789389716289845
 10
1.4068135348654838
 20
7.772740908758966
  0
LWPOLYLINE
  5
43
330
17
100
AcDbEntity
  8
SOLDER_WINDOW_TOP
100
AcDbPolyline
 90
65
 70
1
 10
17.249499999999998
 20
35.052
 10
17.2343198508341
 20
34.74300096511106
 10
17.188925596471183
 20
34.436977759844154
 10
17.11375440839579
 20
34.136877554955305
 10
17.009530226241832
 20
33.84559047946905
 10
16.87725678585819
 20
33.56592178715604
 10
16.71820795278377
 20
33.300564840405706
 10
16.533915454226026
 20
33.052075171674105
 10
16.32615412769059
 20
32.82284587230941
 10
16.096924828325893
 20
32.615084545773975
 10
15.848435159594295
 20
32.43079204721623
 10
15.583078212843958
 20
32.27174321414181
 10
15.303409520530945
 20
32.139469773758165
 10
15.012122445044692
 20
32.03524559160421
 10
14.712022240155845
 20
31.960074403528814
 10
14.40599903488894
 20
31.9146801491659
 10
14.097
 20
31.8995
 10
13.78800096511106
 20
31.9146801491659
 10
13.481977759844156
 20
31.960074403528814
 10
13.181877554955307
 20
32.03524559160421
 10
12.890590479469054
 20
32.139469773758165
 10
12.610921787156041
 20
32.27174321414181
 10
12.345564840405704
 20
32.43079204721622
 10
12.097075171674108
 20
32.61508454577397
 10
11.86784587230941
 20
32.82284587230941
 10
11.660084545773971
 20
33.052075171674105
 10
11.475792047216226
 20
33.300564840405706
 10
11.31674321414181
 20
33.56592178715604
 10
11.184469773758169
 20
33.84559047946905
 10
11.08024559160421
 20
34.136877554955305
 10
11.005074403528816
 20
34.436977759844154
 10
10.9596801491659
 20
34.74300096511106
 10
10.9445
 20
35.052
 10
10.959680149165898
 20
35.36099903488894
 10
11.005074403528816
 20
35.667022240155845
 10
11.08024559160421
 20
35.967122445044694
 10
11.184469773758167
 20
36.25840952053095
 10
11.31674321414181
 20
36.538078212843956
 10
11.475792047216224
 20
36.803435159594294
 10
11.660084545773971
 20
37.051924828325895
 10
11.867845872309408
 20
37.28115412769059
 10
12.097075171674106
 20
37.488915454226024
 10
12.345564840405704
 20
37.67320795278377
 10
12.610921787156041
 20
37.83225678585819
 10
12.890590479469052
 20
37.96453022624183
 10
13.181877554955307
 20
38.06875440839579
 10
13.481977759844154
 20
38.143925596471185
 10
13.78800096511106
 20
38.1893198508341
 10
14.097
 20
38.204499999999996
 10
14.405999034888938
 20
38.1893198508341
 10
14.712022240155845
 20
38.143925596471185
 10
15.01212244504469
 20
38.06875440839579
 10
15.303409520530945
 20
37.964530226241834
 10
15.583078212843956
 20
37.83225678585819
 10
15.848435159594294
 20
37.67320795278378
 10
16.096924828325893
 20
37.488915454226024
 10
16.32615412769059
 20
37.28115412769059
 10
16.533915454226026
 20
37.051924828325895
 10
16.71820795278377
 20
36.803435159594294
 10
16.877256785858187
 20
36.538078212843956
 10
17.00953022624183
 20
36.25840952053095
 10
17.11375440839579
 20
35.967122445044694
 10
17.188925596471183
 20
35.667022240155845
 10
17.2343198508341
 20
35.36099903488894
 10
17.249499999999998
 20
35.052
  0
LWPOLYLINE
  5
44
330
17
100
AcDbEntity
  8
SOLDER_WINDOW_TOP
100
AcDbPolyline
 90
69
 70
1
 10
27.7145
 20
28.0925
 10
20.799500000000002
 20
28.0925
 10
20.77989657193409
 20
28.093463054665563
 10
20.760481935596776
 20
28.096342943919353
 10
20.74144306454911
 20
28.10111193285356
 10
20.722963313526982
 20
28.107724093497744
 10
20.705220652634804
 20
28.11611574713033
 10
20.688385953396082
 20
28.126206077539493
 10
20.672621343167272
 20
28.137897909327453
 10
20.658078643762693
 20
28.15107864376269
 10
20.644897909327454
 20
28.16562134316727
 10
20.633206077539494
 20
28.18138595339608
 10
20.62311574713033
 20
28.198220652634802
 10
20.614724093497745
 20
28.21596331352698
 10
20.60811193285356
 20
28.234443064549108
 10
20.603342943919355
 20
28.253481935596774
 10
20.600463054665564
 20
28.272896571934087
 10
20.599500000000003
 20
28.2925
 10
20.599500000000003
 20
45.3675
 10
20.600463054665564
 20
45.38710342806591
 10
20.603342943919355
 20
45.40651806440322
 10
20.60811193285356
 20
45.42555693545089
 10
20.614724093497745
 20
45.44403668647302
 10
20.62311574713033
 20
45.4617793473652
 10
20.633206077539494
 20
45.47861404660392
 10
20.644897909327454
 20
45.49437865683273
 10
20.658078643762693
 20
45.50892135623731
 10
20.672621343167272
 20
45.52210209067255
 10
20.688385953396082
 20
45.53379392246051
 10
20.705220652634804
 20
45.543884252869674
 10
20.722963313526982
 20
45.55227590650226
 10
20.74144306454911
 20
45.55888806714644
 10
20.760481935596776
 20
45.56365705608064
 10
20.77989657193409
 20
45.56653694533444
 10
20.799500000000002
 20
45.5675
 10
27.7145
 20
45.5675
 10
27.734103428065914
 20
45.56653694533444
 10
27.753518064403227
 20
45.56365705608064
 10
27.772556935450893
 20
45.55888806714644
 10
27.79103668647302
 20
45.55227590650226
 10
27.8087793473652
 20
45.543884252869674
 10
27.82561404660392
 20
45.53379392246051
 10
27.84137865683273
 20
45.52210209067255
 10
27.85592135623731
 20
45.50892135623731
 10
27.86910209067255
 20
45.49437865683273
 10
27.88079392246051
 20
45.47861404660392
 10
27.89088425286967
 20
45.4617793473652
 10
27.899275906502258
 20
45.44403668647302
 10
27.905888067146442
 20
45.42555693545089
 10
27.910657056080648
 20
45.40651806440322
 10
27.91353694533444
 20
45.38710342806591
 10
27.9145
 20
45.3675
 10
27.9145
 20
28.2925
 10
27.91353694533444
 20
28.272896571934087
 10
27.910657056080648
 20
28.253481935596774
 10
27.905888067146442
 20
28.234443064549108
 10
27.899275906502258
 20
28.21596331352698
 10
27.89088425286967
 20
28.198220652634802
 10
27.88079392246051
 20
28.18138595339608
 10
27.86910209067255
 20
28.16562134316727
 10
27.85592135623731
 20
28.15107864376269
 10
27.84137865683273
 20
28.137897909327453
 10
27.82561404660392
 20
28.126206077539493
 10
27.8087793473652
 20
28.11611574713033
 10
27.79103668647302
 20
28.107724093497744
 10
27.772556935450893
 20
28.10111193285356
 10
27.753518064403227
 20
28.096342943919353
 10
27.734103428065914
 20
28.093463054665563
 10
27.7145
 20
28.0925
  0
LWPOLYLINE
  5
45
330
17
100
AcDbEntity
  8
SOLDER_WINDOW_TOP
100
AcDbPolyline
 90
69
 70
1
 10
27.7145
 20
2.6924999999999994
 10
20.799500000000002
 20
2.6924999999999994
 10
20.77989657193409
 20
2.6934630546655605
 10
20.760481935596776
 20
2.6963429439193534
 10
20.74144306454911
 20
2.701111932853558
 10
20.722963313526982
 20
2.7077240934977422
 10
20.705220652634804
 20
2.7161157471303286
 10
20.688385953396082
 20
2.7262060775394907
 10
20.672621343167272
 20
2.7378979093274523
 10
20.658078643762693
 20
2.75107864376269
 10
20.644897909327454
 20
2.7656213431672705
 10
20.633206077539494
 20
2.781385953396079
 10
20.62311574713033
 20
2.7982206526348
 10
20.614724093497745
 20
2.8159633135269817
 10
20.60811193285356
 20
2.834443064549107
 10
20.603342943919355
 20
2.8534819355967738
 10
20.600463054665564
 20
2.8728965719340875
 10
20.599500000000003
 20
2.8924999999999996
 10
20.599500000000003
 20
19.9675
 10
20.600463054665564
 20
19.987103428065915
 10
20.603342943919355
 20
20.006518064403227
 10
20.60811193285356
 20
20.025556935450894
 10
20.614724093497745
 20
20.04403668647302
 10
20.62311574713033
 20
20.0617793473652
 10
20.633206077539494
 20
20.07861404660392
 10
20.644897909327454
 20
20.09437865683273
 10
20.658078643762693
 20
20.10892135623731
 10
20.672621343167272
 20
20.12210209067255
 10
20.688385953396082
 20
20.13379392246051
 10
20.705220652634804
 20
20.14388425286967
 10
20.722963313526982
 20
20.152275906502258
 10
20.74144306454911
 20
20.158888067146442
 10
20.760481935596776
 20
20.16365705608065
 10
20.77989657193409
 20
20.16653694533444
 10
20.799500000000002
 20
20.1675
 10
27.7145
 20
20.1675
 10
27.734103428065914
 20
20.16653694533444
 10
27.753518064403227
 20
20.16365705608065
 10
27.772556935450893
 20
20.158888067146442
 10
27.79103668647302
 20
20.152275906502258
 10
27.8087793473652
 20
20.14388425286967
 10
27.82561404660392
 20
20.13379392246051
 10
27.84137865683273
 20
20.12210209067255
 10
27.85592135623731
 20
20.10892135623731
 10
27.86910209067255
 20
20.09437865683273
 10
27.88079392246051
 20
20.07861404660392
 10
27.89088425286967
 20
20.0617793473652
 10
27.899275906502258
 20
20.04403668647302
 10
27.905888067146442
 20
20.025556935450894
 10
27.910657056080648
 20
20.006518064403227
 10
27.91353694533444
 20
19.987103428065915
 10
27.9145
 20
19.9675
 10
27.9145
 20
2.8924999999999996
 10
27.91353694533444
 20
2.8728965719340875
 10
27.910657056080648
 20
2.8534819355967738
 10
27.905888067146442
 20
2.834443064549107
 10
27.899275906502258
 20
2.8159633135269817
 10
27.89088425286967
 20
2.7982206526348
 10
27.88079392246051
 20
2.781385953396079
 10
27.86910209067255
 20
2.7656213431672705
 10
27.85592135623731
 20
2.75107864376269
 10
27.84137865683273
 20
2.7378979093274523
 10
27.82561404660392
 20
2.7262060775394907
 10
27.8087793473652
 20
2.7161157471303286
 10
27.79103668647302
 20
2.7077240934977422
 10
27.772556935450893
 20
2.701111932853558
 10
27.753518064403227
 20
2.6963429439193534
 10
27.734103428065914
 20
2.6934630546655605
 10
27.7145
 20
2.6924999999999994
  0
LWPOLYLINE
  5
46
330
17
100
AcDbEntity
  8
SOLDER_WINDOW_TOP
100
AcDbPolyline
 90
69
 70
1
 10
20.0945
 20
37.4905
 10
5.5595
 20
37.4905
 10
5.539896571934087
 20
37.49146305466556
 10
5.5204819355967745
 20
37.49434294391936
 10
5.5014430645491075
 20
37.49911193285356
 10
5.482963313526982
 20
37.50572409349774
 10
5.4652206526348
 20
37.514115747130326
 10
5.4483859533960795
 20
37.52420607753949
 10
5.432621343167271
 20
37.53589790932745
 10
5.418078643762691
 20
37.54907864376269
 10
5.4048979093274525
 20
37.56362134316727
 10
5.3932060775394906
 20
37.57938595339608
 10
5.383115747130329
 20
37.5962206526348
 10
5.3747240934977425
 20
37.61396331352698
 10
5.368111932853558
 20
37.63244306454911
 10
5.363342943919354
 20
37.65148193559678
 10
5.36046305466556
 20
37.67089657193409
 10
5.3595
 20
37.6905
 10
5.3595
 20
47.145500000000006
 10
5.36046305466556
 20
47.16510342806592
 10
5.363342943919354
 20
47.18451806440323
 10
5.368111932853558
 20
47.2035569354509
 10
5.3747240934977425
 20
47.222036686473025
 10
5.383115747130329
 20
47.23977934736521
 10
5.3932060775394906
 20
47.25661404660393
 10
5.4048979093274525
 20
47.272378656832736
 10
5.418078643762691
 20
47.286921356237315
 10
5.432621343167271
 20
47.30010209067255
 10
5.4483859533960795
 20
47.31179392246052
 10
5.4652206526348
 20
47.32188425286968
 10
5.482963313526982
 20
47.330275906502266
 10
5.5014430645491075
 20
47.33688806714645
 10
5.5204819355967745
 20
47.34165705608065
 10
5.539896571934087
 20
47.34453694533445
 10
5.5595
 20
47.34550000000001
 10
20.0945
 20
47.34550000000001
 10
20.114103428065913
 20
47.34453694533445
 10
20.133518064403226
 20
47.34165705608065
 10
20.152556935450892
 20
47.33688806714645
 10
20.17103668647302
 20
47.330275906502266
 10
20.188779347365198
 20
47.32188425286968
 10
20.20561404660392
 20
47.31179392246052
 10
20.22137865683273
 20
47.30010209067255
 10
20.23592135623731
 20
47.286921356237315
 10
20.249102090672547
 20
47.272378656832736
 10
20.260793922460508
 20
47.25661404660393
 10
20.27088425286967
 20
47.23977934736521
 10
20.279275906502257
 20
47.222036686473025
 10
20.28588806714644
 20
47.2035569354509
 10
20.290657056080647
 20
47.18451806440323
 10
20.293536945334438
 20
47.16510342806592
 10
20.2945
 20
47.145500000000006
 10
20.2945
 20
37.6905
 10
20.293536945334438
 20
37.67089657193409
 10
20.290657056080647
 20
37.65148193559678
 10
20.28588806714644
 20
37.63244306454911
 10
20.279275906502257
 20
37.61396331352698
 10
20.27088425286967
 20
37.5962206526348
 10
20.260793922460508
 20
37.57938595339608
 10
20.249102090672547
 20
37.56362134316727
 10
20.23592135623731
 20
37.54907864376269
 10
20.22137865683273
 20
37.53589790932745
 10
20.20561404660392
 20
37.52420607753949
 10
20.188779347365198
 20
37.514115747130326
 10
20.17103668647302
 20
37.50572409349774
 10
20.152556935450892
 20
37.49911193285356
 10
20.133518064403226
 20
37.49434294391936
 10
20.114103428065913
 20
37.49146305466556
 10
20.0945
 20
37.4905
  0
CIRCLE
  5
47
330
17
100
AcDbEntity
  8
CLIPS
100
AcDbCircle
 10
8.15
 20
60.11
 30
0.0
 40
1.7
  0
CIRCLE
  5
48
330
17
100
AcDbEntity
  8
CLIPS
100
AcDbCircle
 10
17.504
 20
60.11
 30
0.0
 40
1.7
  0
CIRCLE
  5
49
330
17
100
AcDbEntity
  8
CLIPS
100
AcDbCircle
 10
8.15
 20
-11.85
 30
0.0
 40
1.7
  0
CIRCLE
  5
4A
330
17
100
AcDbEntity
  8
CLIPS
100
AcDbCircle
 10
17.504
 20
-11.85
 30
0.0
 40
1.7
  0
LWPOLYLINE
  5
4B
330
17
100
AcDbEntity
  8
FIXTURE_OUTLINE
100
AcDbPolyline
 90
69
 70
1
 10
50.0
 20
-30.0
 10
49.975923633360985
 20
-30.490085701647804
 10
49.903926402016154
 20
-30.97545161008064
 10
49.784701678661044
 20
-31.45142338627231
 10
49.61939766255644
 20
-31.91341716182545
 10
49.40960632174178
 20
-32.356983684129986
 10
49.15734806151273
 20
-32.777851165098014
 10
48.865052266813684
 20
-33.17196642081823
 10
48.53553390593274
 20
-33.53553390593274
 10
48.17196642081823
 20
-33.865052266813684
 10
47.777851165098014
 20
-34.15734806151273
 10
47.356983684129986
 20
-34.40960632174178
 10
46.91341716182545
 20
-34.61939766255644
 10
46.45142338627231
 20
-34.784701678661044
 10
45.97545161008064
 20
-34.903926402016154
 10
45.49008570164781
 20
-34.975923633360985
 10
45.0
 20
-35.0
 10
-20.0
 20
-35.0
 10
-20.490085701647804
 20
-34.975923633360985
 10
-20.975451610080643
 20
-34.903926402016154
 10
-21.451423386272314
 20
-34.784701678661044
 10
-21.91341716182545
 20
-34.61939766255643
 10
-22.35698368412999
 20
-34.40960632174178
 10
-22.77785116509801
 20
-34.15734806151273
 10
-23.17196642081823
 20
-33.865052266813684
 10
-23.535533905932738
 20
-33.53553390593274
 10
-23.865052266813684
 20
-33.17196642081823
 10
-24.157348061512728
 20
-32.777851165098014
 10
-24.409606321741776
 20
-32.356983684129986
 10
-24.619397662556434
 20
-31.91341716182545
 10
-24.784701678661044
 20
-31.45142338627231
 10
-24.903926402016154
 20
-30.975451610080643
 10
-24.975923633360985
 20
-30.490085701647804
 10
-25.0
 20
-30.0
 10
-25.0
 20
80.0
 10
-24.975923633360985
 20
80.4900857016478
 10
-24.903926402016154
 20
80.97545161008064
 10
-24.784701678661044
 20
81.45142338627231
 10
-24.619397662556434
 20
81.91341716182545
 10
-24.409606321741776
 20
82.35698368412999
 10
-24.157348061512728
 20
82.77785116509801
 10
-23.865052266813684
 20
83.17196642081822
 10
-23.535533905932738
 20
83.53553390593274
 10
-23.171966420818226
 20
83.86505226681369
 10
-22.77785116509801
 20
84.15734806151272
 10
-22.35698368412999
 20
84.40960632174178
 10
-21.91341716182545
 20
84.61939766255644
 10
-21.45142338627231
 20
84.78470167866105
 10
-20.97545161008064
 20
84.90392640201615
 10
-20.490085701647804
 20
84.97592363336099
 10
-20.0
 20
85.0
 10
45.0
 20
85.0
 10
45.49008570164781
 20
84.97592363336098
 10
45.97545161008064
 20
84.90392640201615
 10
46.45142338627231
 20
84.78470167866105
 10
46.91341716182545
 20
84.61939766255644
 10
47.356983684129986
 20
84.40960632174178
 10
47.777851165098014
 20
84.15734806151272
 10
48.17196642081823
 20
83.86505226681368
 10
48.53553390593274
 20
83.53553390593274
 10
48.865052266813684
 20
83.17196642081822
 10
49.15734806151273
 20
82.77785116509801
 10
49.40960632174178
 20
82.35698368412999
 10
49.61939766255644
 20
81.91341716182545
 10
49.784701678661044
 20
81.45142338627231
 10
49.903926402016154
 20
80.97545161008064
 10
49.975923633360985
 20
80.4900857016478
 10
50.0
 20
80.0
 10
50.0
 20
-30.0
  0
LWPOLYLINE
  5
4C
330
17
100
AcDbEntity
  8
HANDHOLDS
100
AcDbPolyline
 90
69
 70
1
 10
-0.8500000000000001
 20
6.129999999999999
 10
-0.8596305466556062
 20
5.933965719340878
 10
-0.8884294391935392
 20
5.739819355967742
 10
-0.9361193285355824
 20
5.549430645491074
 10
-1.0022409349774266
 20
5.36463313526982
 10
-1.08615747130329
 20
5.187206526348004
 10
-1.1870607753949096
 20
5.018859533960795
 10
-1.303979093274526
 20
4.861213431672708
 10
-1.435786437626905
 20
4.715786437626904
 10
-1.5812134316727091
 20
4.583979093274525
 10
-1.7388595339607955
 20
4.467060775394908
 10
-1.9072065263480045
 20
4.366157471303289
 10
-2.0846331352698204
 20
4.282240934977425
 10
-2.2694306454910755
 20
4.216119328535581
 10
-2.4598193559677433
 20
4.168429439193538
 10
-2.6539657193408788
 20
4.139630546655606
 10
-2.85
 20
4.129999999999999
 10
-18.85
 20
4.129999999999999
 10
-19.04603428065912
 20
4.139630546655605
 10
-19.240180644032257
 20
4.168429439193538
 10
-19.430569354508926
 20
4.216119328535582
 10
-19.61536686473018
 20
4.282240934977426
 10
-19.792793473651997
 20
4.366157471303289
 10
-19.961140466039204
 20
4.467060775394908
 10
-20.118786568327295
 20
4.583979093274525
 10
-20.264213562373097
 20
4.715786437626904
 10
-20.396020906725475
 20
4.8612134316727085
 10
-20.51293922460509
 20
5.018859533960795
 10
-20.61384252869671
 20
5.187206526348004
 10
-20.697759065022574
 20
5.36463313526982
 10
-20.76388067146442
 20
5.549430645491075
 10
-20.811570560806462
 20
5.739819355967742
 10
-20.840369453344394
 20
5.933965719340878
 10
-20.85
 20
6.129999999999999
 10
-20.85
 20
42.129999999999995
 10
-20.840369453344394
 20
42.326034280659115
 10
-20.811570560806462
 20
42.52018064403225
 10
-20.76388067146442
 20
42.71056935450892
 10
-20.697759065022574
 20
42.89536686473018
 10
-20.61384252869671
 20
43.07279347365199
 10
-20.51293922460509
 20
43.2411404660392
 10
-20.396020906725475
 20
43.39878656832729
 10
-20.264213562373097
 20
43.54421356237309
 10
-20.11878656832729
 20
43.67602090672547
 10
-19.961140466039204
 20
43.792939224605085
 10
-19.792793473651997
 20
43.89384252869671
 10
-19.61536686473018
 20
43.97775906502257
 10
-19.430569354508926
 20
44.043880671464414
 10
-19.240180644032257
 20
44.09157056080646
 10
-19.04603428065912
 20
44.12036945334439
 10
-18.85
 20
44.129999999999995
 10
-2.85
 20
44.129999999999995
 10
-2.6539657193408788
 20
44.12036945334439
 10
-2.4598193559677433
 20
44.09157056080646
 10
-2.2694306454910755
 20
44.043880671464414
 10
-2.0846331352698204
 20
43.97775906502257
 10
-1.9072065263480045
 20
43.89384252869671
 10
-1.7388595339607955
 20
43.792939224605085
 10
-1.5812134316727091
 20
43.67602090672547
 10
-1.435786437626905
 20
43.54421356237309
 10
-1.303979093274526
 20
43.39878656832729
 10
-1.1870607753949096
 20
43.2411404660392
 10
-1.0861574713032902
 20
43.07279347365199
 10
-1.0022409349774266
 20
42.89536686473018
 10
-0.9361193285355822
 20
42.71056935450892
 10
-0.8884294391935392
 20
42.52018064403225
 10
-0.8596305466556062
 20
42.326034280659115
 10
-0.8500000000000001
 20
42.129999999999995
 10
-0.8500000000000001
 20
6.129999999999999
  0
LWPOLYLINE
  5
4D
330
17
100
AcDbEntity
  8
HANDHOLDS
100
AcDbPolyline
 90
69
 70
1
 10
46.504000000000005
 20
6.129999999999999
 10
46.4943694533444
 20
5.933965719340878
 10
46.46557056080647
 20
5.739819355967742
 10
46.417880671464424
 20
5.549430645491074
 10
46.35175906502258
 20
5.36463313526982
 10
46.26784252869672
 20
5.187206526348004
 10
46.166939224605095
 20
5.018859533960795
 10
46.05002090672548
 20
4.861213431672708
 10
45.9182135623731
 20
4.715786437626904
 10
45.7727865683273
 20
4.583979093274525
 10
45.61514046603921
 20
4.467060775394908
 10
45.446793473652
 20
4.366157471303289
 10
45.26936686473019
 20
4.282240934977425
 10
45.08456935450893
 20
4.216119328535581
 10
44.89418064403226
 20
4.168429439193538
 10
44.700034280659125
 20
4.139630546655606
 10
44.504000000000005
 20
4.129999999999999
 10
28.504
 20
4.129999999999999
 10
28.30796571934088
 20
4.139630546655605
 10
28.113819355967745
 20
4.168429439193538
 10
27.923430645491077
 20
4.216119328535582
 10
27.738633135269822
 20
4.282240934977426
 10
27.561206526348005
 20
4.366157471303289
 10
27.392859533960795
 20
4.467060775394908
 10
27.235213431672708
 20
4.583979093274525
 10
27.089786437626906
 20
4.715786437626904
 10
26.957979093274528
 20
4.8612134316727085
 10
26.84106077539491
 20
5.018859533960795
 10
26.74015747130329
 20
5.187206526348004
 10
26.65624093497743
 20
5.36463313526982
 10
26.590119328535582
 20
5.549430645491075
 10
26.54242943919354
 20
5.739819355967742
 10
26.51363054665561
 20
5.933965719340878
 10
26.504
 20
6.129999999999999
 10
26.504
 20
42.129999999999995
 10
26.51363054665561
 20
42.326034280659115
 10
26.54242943919354
 20
42.52018064403225
 10
26.590119328535582
 20
42.71056935450892
 10
26.65624093497743
 20
42.89536686473018
 10
26.74015747130329
 20
43.07279347365199
 10
26.84106077539491
 20
43.2411404660392
 10
26.957979093274528
 20
43.39878656832729
 10
27.089786437626906
 20
43.54421356237309
 10
27.23521343167271
 20
43.67602090672547
 10
27.3928595339608
 20
43.792939224605085
 10
27.561206526348005
 20
43.89384252869671
 10
27.738633135269822
 20
43.97775906502257
 10
27.923430645491077
 20
44.043880671464414
 10
28.113819355967745
 20
44.09157056080646
 10
28.30796571934088
 20
44.12036945334439
 10
28.504
 20
44.129999999999995
 10
44.504000000000005
 20
44.129999999999995
 10
44.700034280659125
 20
44.12036945334439
 10
44.89418064403226
 20
44.09157056080646
 10
45.08456935450893
 20
44.043880671464414
 10
45.26936686473019
 20
43.97775906502257
 10
45.446793473652
 20
43.89384252869671
 10
45.61514046603921
 20
43.792939224605085
 10
45.7727865683273
 20
43.67602090672547
 10
45.9182135623731
 20
43.54421356237309
 10
46.05002090672548
 20
43.39878656832729
 10
46.166939224605095
 20
43.2411404660392
 10
46.26784252869672
 20
43.07279347365199
 10
46.35175906502258
 20
42.89536686473018
 10
46.417880671464424
 20
42.71056935450892
 10
46.46557056080647
 20
42.52018064403225
 10
46.4943694533444
 20
42.326034280659115
 10
46.504000000000005
 20
42.129999999999995
 10
46.504000000000005
 20
6.129999999999999
  0
LWPOLYLINE
  5
4E
330
17
100
AcDbEntity
  8
RAILS
100
AcDbPolyline
 90
5
 70
1
 10
50.0
 20
80.0
 10
50.0
 20
85.0
 10
-25.0
 20
85.0
 10
-25.0
 20
80.0
 10
50.0
 20
80.0
  0
LWPOLYLINE
  5
4F
330
17
100
AcDbEntity
  8
RAILS
100
AcDbPolyline
 90
5
 70
1
 10
50.0
 20
-35.0
 10
50.0
 20
-30.0
 10
-25.0
 20
-30.0
 10
-25.0
 20
-35.0
 10
50.0
 20
-35.0
  0
LWPOLYLINE
  5
50
330
17
100
AcDbEntity
  8
SOLDER_BARRIERS
100
AcDbPolyline
 90
5
 70
1
 10
-15.0
 20
-30.0
 10
-15.0
 20
80.0
 10
-25.0
 20
80.0
 10
-25.0
 20
-30.0
 10
-15.0
 20
-30.0
  0
LWPOLYLINE
  5
51
330
17
100
AcDbEntity
  8
SOLDER_BARRIERS
100
AcDbPolyline
 90
5
 70
1
 10
50.0
 20
-30.0
 10
50.0
 20
80.0
 10
40.0
 20
80.0
 10
40.0
 20
-30.0
 10
50.0
 20
-30.0
  0
CIRCLE
  5
52
330
17
100
AcDbEntity
  8
BARRIER_MOUNT_HOLES
100
AcDbCircle
 10
-20.0
 20
-15.0
 30
0.0
 40
1.6
  0
CIRCLE
  5
53
330
17
100
AcDbEntity
  8
BARRIER_MOUNT_HOLES
100
AcDbCircle
 10
45.0
 20
-15.0
 30
0.0
 40
1.6
  0
CIRCLE
  5
54
330
17
100
AcDbEntity
  8
BARRIER_MOUNT_HOLES
100
AcDbCircle
 10
-20.0
 20
25.0
 30
0.0
 40
1.6
  0
CIRCLE
  5
55
330
17
100
AcDbEntity
  8
BARRIER_MOUNT_HOLES
100
AcDbCircle
 10
45.0
 20
25.0
 30
0.0
 40
1.6
  0
CIRCLE
  5
56
330
17
100
AcDbEntity
  8
BARRIER_MOUNT_HOLES
100
AcDbCircle
 10
-20.0
 20
65.0
 30
0.0
 40
1.6
  0
CIRCLE
  5
57
330
17
100
AcDbEntity
  8
BARRIER_MOUNT_HOLES
100
AcDbCircle
 10
45.0
 20
65.0
 30
0.0
 40
1.6
  0
DIMENSION
  5
59
330
17
100
AcDbEntity
  8
0
100
AcDbDimension
280
0
  2
*D1
  3
FIXTURE_DIM
 10
-25.0
 20
-43.0
 30
0.0
 11
12.5
 21
-43.0
 31
0.0
 70
32
 71
5
  1
<>
100
AcDbAlignedDimension
 13
-25.0
 23
-35.0
 33
0.0
 14
50.0
 24
-35.0
 34
0.0
 50
0.0
100
AcDbRotatedDimension
  0
DIMENSION
  5
6D
330
17
100
AcDbEntity
  8
0
100
AcDbDimension
280
0
  2
*D2
  3
FIXTURE_DIM
 10
58.0
 20
-35.0
 30
0.0
 11
58.0
 21
25.0
 31
0.0
 70
32
 71
5
  1
<>
100
AcDbAlignedDimension
 13
50.0
 23
-35.0
 33
0.0
 14
50.0
 24
85.0
 34
0.0
 50
90.0
100
AcDbRotatedDimension
  0
DIMENSION
  5
7D
330
17
100
AcDbEntity
  8
0
100
AcDbDimension
280
0
  2
*D3
  3
FIXTURE_DIM
 10
0.0
 20
53.26
 30
0.0
 11
12.827
 21
53.26
 31
0.0
 70
32
 71
5
  1
<>
100
AcDbAlignedDimension
 13
0.0
 23
48.26
 33
0.0
 14
25.654
 24
48.26
 34
0.0
 50
0.0
100
AcDbRotatedDimension
  0
DIMENSION
  5
8D
330
17
100
AcDbEntity
  8
0
100
AcDbDimension
280
0
  2
*D4
  3
FIXTURE_DIM
 10
-5.0
 20
0.0
 30
0.0
 11
-5.0
 21
24.13
 31
0.0
 70
32
 71
5
  1
<>
100
AcDbAlignedDimension
 13
0.0
 23
0.0
 33
0.0
 14
0.0
 24
48.26
 34
0.0
 50
90.0
100
AcDbRotatedDimension
  0
CIRCLE
  5
9D
330
17
100
AcDbEntity
  8
PCB_DRILL
100
AcDbCircle
 10
6.096
 20
28.829
 30
0.0
 40
0.1525
  0
CIRCLE
  5
9E
330
17
100
AcDbEntity
  8
PCB_DRILL
100
AcDbCircle
 10
6.096
 20
33.274
 30
0.0
 40
0.1525
  0
CIRCLE
  5
9F
330
17
100
AcDbEntity
  8
PCB_DRILL
100
AcDbCircle
 10
14.097
 20
35.052
 30
0.0
 40
0.1525
  0
CIRCLE
  5
A0
330
17
100
AcDbEntity
  8
PCB_DRILL
100
AcDbCircle
 10
4.699
 20
35.052
 30
0.0
 40
0.1525
  0
CIRCLE
  5
A1
330
17
100
AcDbEntity
  8
PCB_DRILL
100
AcDbCircle
 10
24.257
 20
41.91
 30
0.0
 40
0.4575
  0
CIRCLE
  5
A2
330
17
100
AcDbEntity
  8
PCB_DRILL
100
AcDbCircle
 10
24.257
 20
39.37
 30
0.0
 40
0.4575
  0
CIRCLE
  5
A3
330
17
100
AcDbEntity
  8
PCB_DRILL
100
AcDbCircle
 10
24.257
 20
36.83
 30
0.0
 40
0.4575
  0
CIRCLE
  5
A4
330
17
100
AcDbEntity
  8
PCB_DRILL
100
AcDbCircle
 10
24.257
 20
34.29
 30
0.0
 40
0.4575
  0
CIRCLE
  5
A5
330
17
100
AcDbEntity
  8
PCB_DRILL
100
AcDbCircle
 10
24.257
 20
31.75
 30
0.0
 40
0.4575
  0
CIRCLE
  5
A6
330
17
100
AcDbEntity
  8
PCB_DRILL
100
AcDbCircle
 10
24.257
 20
16.51
 30
0.0
 40
0.4575
  0
CIRCLE
  5
A7
330
17
100
AcDbEntity
  8
PCB_DRILL
100
AcDbCircle
 10
24.257
 20
13.97
 30
0.0
 40
0.4575
  0
CIRCLE
  5
A8
330
17
100
AcDbEntity
  8
PCB_DRILL
100
AcDbCircle
 10
24.257
 20
11.43
 30
0.0
 40
0.4575
  0
CIRCLE
  5
A9
330
17
100
AcDbEntity
  8
PCB_DRILL
100
AcDbCircle
 10
24.257
 20
8.89
 30
0.0
 40
0.4575
  0
CIRCLE
  5
AA
330
17
100
AcDbEntity
  8
PCB_DRILL
100
AcDbCircle
 10
24.257
 20
6.35
 30
0.0
 40
0.4575
  0
CIRCLE
  5
AB
330
17
100
AcDbEntity
  8
PCB_DRILL
100
AcDbCircle
 10
1.397
 20
11.43
 30
0.0
 40
0.4575
  0
CIRCLE
  5
AC
330
17
100
AcDbEntity
  8
PCB_DRILL
100
AcDbCircle
 10
1.397
 20
13.97
 30
0.0
 40
0.4575
  0
CIRCLE
  5
AD
330
17
100
AcDbEntity
  8
PCB_DRILL
100
AcDbCircle
 10
1.397
 20
16.51
 30
0.0
 40
0.4575
  0
CIRCLE
  5
AE
330
17
100
AcDbEntity
  8
PCB_DRILL
100
AcDbCircle
 10
1.397
 20
19.05
 30
0.0
 40
0.4575
  0
CIRCLE
  5
AF
330
17
100
AcDbEntity
  8
PCB_DRILL
100
AcDbCircle
 10
1.397
 20
21.59
 30
0.0
 40
0.4575
  0
CIRCLE
  5
B0
330
17
100
AcDbEntity
  8
PCB_DRILL
100
AcDbCircle
 10
1.397
 20
24.13
 30
0.0
 40
0.4575
  0
CIRCLE
  5
B1
330
17
100
AcDbEntity
  8
PCB_DRILL
100
AcDbCircle
 10
1.397
 20
26.67
 30
0.0
 40
0.4575
  0
CIRCLE
  5
B2
330
17
100
AcDbEntity
  8
PCB_DRILL
100
AcDbCircle
 10
1.397
 20
29.21
 30
0.0
 40
0.4575
  0
CIRCLE
  5
B3
330
17
100
AcDbEntity
  8
PCB_DRILL
100
AcDbCircle
 10
1.397
 20
31.75
 30
0.0
 40
0.4575
  0
CIRCLE
  5
B4
330
17
100
AcDbEntity
  8
PCB_DRILL
100
AcDbCircle
 10
16.637
 20
43.688
 30
0.0
 40
0.4575
  0
CIRCLE
  5
B5
330
17
100
AcDbEntity
  8
PCB_DRILL
100
AcDbCircle
 10
16.637
 20
41.148
 30
0.0
 40
0.4575
  0
CIRCLE
  5
B6
330
17
100
AcDbEntity
  8
PCB_DRILL
100
AcDbCircle
 10
14.097
 20
43.688
 30
0.0
 40
0.4575
  0
CIRCLE
  5
B7
330
17
100
AcDbEntity
  8
PCB_DRILL
100
AcDbCircle
 10
14.097
 20
41.148
 30
0.0
 40
0.4575
  0
CIRCLE
  5
B8
330
17
100
AcDbEntity
  8
PCB_DRILL
100
AcDbCircle
 10
11.557
 20
43.688
 30
0.0
 40
0.4575
  0
CIRCLE
  5
B9
330
17
100
AcDbEntity
  8
PCB_DRILL
100
AcDbCircle
 10
11.557
 20
41.148
 30
0.0
 40
0.4575
  0
CIRCLE
  5
BA
330
17
100
AcDbEntity
  8
PCB_DRILL
100
AcDbCircle
 10
9.017
 20
43.688
 30
0.0
 40
0.4575
  0
CIRCLE
  5
BB
330
17
100
AcDbEntity
  8
PCB_DRILL
100
AcDbCircle
 10
9.017
 20
41.148
 30
0.0
 40
0.4575
  0
ENDSEC
  0
SECTION
  2
OBJECTS
  0
DICTIONARY
  5
A
330
0
100
AcDbDictionary
281
1
  3
ACAD_COLOR
350
B
  3
ACAD_GROUP
350
C
  3
ACAD_LAYOUT
350
D
  3
ACAD_MATERIAL
350
E
  3
ACAD_MLEADERSTYLE
350
F
  3
ACAD_MLINESTYLE
350
10
  3
ACAD_PLOTSETTINGS
350
11
  3
ACAD_PLOTSTYLENAME
350
12
  3
ACAD_SCALELIST
350
14
  3
ACAD_TABLESTYLE
350
15
  3
ACAD_VISUALSTYLE
350
16
  3
EZDXF_META
350
2D
  0
DICTIONARY
  5
B
330
A
100
AcDbDictionary
281
1
  0
DICTIONARY
  5
C
330
A
100
AcDbDictionary
281
1
  0
DICTIONARY
  5
D
330
A
100
AcDbDictionary
281
1
  3
Model
350
1A
  3
Layout1
350
1E
  0
DICTIONARY
  5
E
330
A
100
AcDbDictionary
281
1
  3
ByBlock
350
1F
  3
ByLayer
350
20
  3
Global
350
21
  0
DICTIONARY
  5
F
330
A
100
AcDbDictionary
281
1
  3
Standard
350
2C
  0
DICTIONARY
  5
10
330
A
100
AcDbDictionary
281
1
  3
Standard
350
22
  0
DICTIONARY
  5
11
330
A
100
AcDbDictionary
281
1
  0
ACDBDICTIONARYWDFLT
  5
12
330
A
100
AcDbDictionary
281
1
  3
Normal
350
13
100
AcDbDictionaryWithDefault
340
13
  0
ACDBPLACEHOLDER
  5
13
330
12
  0
DICTIONARY
  5
14
330
A
100
AcDbDictionary
281
1
  0
DICTIONARY
  5
15
330
A
100
AcDbDictionary
281
1
  0
DICTIONARY
  5
16
330
A
100
AcDbDictionary
281
1
  0
LAYOUT
  5
1A
330
D
100
AcDbPlotSettings
  1

  4
A3
  6

 40
7.5
 41
20.0
 42
7.5
 43
20.0
 44
420.0
 45
297.0
 46
0.0
 47
0.0
 48
0.0
 49
0.0
140
0.0
141
0.0
142
1.0
143
1.0
 70
1024
 72
1
 73
0
 74
5
  7

 75
16
 76
0
 77
2
 78
300
147
1.0
148
0.0
149
0.0
100
AcDbLayout
  1
Model
 70
1
 71
0
 10
0.0
 20
0.0
 11
420.0
 21
297.0
 12
0.0
 22
0.0
 32
0.0
 14
1e+20
 24
1e+20
 34
1e+20
 15
-1e+20
 25
-1e+20
 35
-1e+20
146
0.0
 13
0.0
 23
0.0
 33
0.0
 16
1.0
 26
0.0
 36
0.0
 17
0.0
 27
1.0
 37
0.0
 76
1
330
17
  0
LAYOUT
  5
1E
330
D
100
AcDbPlotSettings
  1

  4
A3
  6

 40
7.5
 41
20.0
 42
7.5
 43
20.0
 44
420.0
 45
297.0
 46
0.0
 47
0.0
 48
0.0
 49
0.0
140
0.0
141
0.0
142
1.0
143
1.0
 70
0
 72
1
 73
0
 74
5
  7

 75
16
 76
0
 77
2
 78
300
147
1.0
148
0.0
149
0.0
100
AcDbLayout
  1
Layout1
 70
1
 71
1
 10
0.0
 20
0.0
 11
420.0
 21
297.0
 12
0.0
 22
0.0
 32
0.0
 14
1e+20
 24
1e+20
 34
1e+20
 15
-1e+20
 25
-1e+20
 35
-1e+20
146
0.0
 13
0.0
 23
0.0
 33
0.0
 16
1.0
 26
0.0
 36
0.0
 17
0.0
 27
1.0
 37
0.0
 76
1
330
1B
  0
MATERIAL
  5
1F
102
{ACAD_REACTORS
330
E
102
}
330
E
100
AcDbMaterial
  1
ByBlock
  2

 70
0
 40
1.0
 71
1
 41
1.0
 91
-1023410177
 42
1.0
 72
1
  3

 73
1
 74
1
 75
1
 44
0.5
 73
0
 45
1.0
 46
1.0
 77
1
  4

 78
1
 79
1
170
1
 48
1.0
171
1
  6

172
1
173
1
174
1
140
1.0
141
1.0
175
1
  7

176
1
177
1
178
1
143
1.0
179
1
  8

270
1
271
1
272
1
145
1.0
146
1.0
273
1
  9

274
1
275
1
276
1
 42
1.0
 72
1
  3

 73
1
 74
1
 75
1
 94
63
  0
MATERIAL
  5
20
102
{ACAD_REACTORS
330
E
102
}
330
E
100
AcDbMaterial
  1
ByLayer
  2

 70
0
 40
1.0
 71
1
 41
1.0
 91
-1023410177
 42
1.0
 72
1
  3

 73
1
 74
1
 75
1
 44
0.5
 73
0
 45
1.0
 46
1.0
 77
1
  4

 78
1
 79
1
170
1
 48
1.0
171
1
  6

172
1
173
1
174
1
140
1.0
141
1.0
175
1
  7

176
1
177
1
178
1
143
1.0
179
1
  8

270
1
271
1
272
1
145
1.0
146
1.0
273
1
  9

274
1
275
1
276
1
 42
1.0
 72
1
  3

 73
1
 74
1
 75
1
 94
63
  0
MATERIAL
  5
21
102
{ACAD_REACTORS
330
E
102
}
330
E
100
AcDbMaterial
  1
Global
  2

 70
0
 40
1.0
 71
1
 41
1.0
 91
-1023410177
 42
1.0
 72
1
  3

 73
1
 74
1
 75
1
 44
0.5
 73
0
 45
1.0
 46
1.0
 77
1
  4

 78
1
 79
1
170
1
 48
1.0
171
1
  6

172
1
173
1
174
1
140
1.0
141
1.0
175
1
  7

176
1
177
1
178
1
143
1.0
179
1
  8

270
1
271
1
272
1
145
1.0
146
1.0
273
1
  9

274
1
275
1
276
1
 42
1.0
 72
1
  3

 73
1
 74
1
 75
1
 94
63
  0
MLINESTYLE
  5
22
102
{ACAD_REACTORS
330
10
102
}
330
10
100
AcDbMlineStyle
  2
Standard
 70
0
  3

 62
256
 51
90.0
 52
90.0
 71
2
 49
0.5
 62
256
  6
BYLAYER
 49
-0.5
 62
256
  6
BYLAYER
  0
MLEADERSTYLE
  5
2C
102
{ACAD_REACTORS
330
F
102
}
330
F
100
AcDbMLeaderStyle
179
2
170
2
171
1
172
0
 90
2
 40
0.0
 41
0.0
173
1
 91
-1056964608
 92
-2
290
1
 42
2.0
291
1
 43
8.0
  3
Standard
 44
4.0
300

342
29
174
1
175
1
176
0
178
1
 93
-1056964608
 45
4.0
292
0
297
0
 46
4.0
 94
-1056964608
 47
1.0
 49
1.0
140
1.0
294
1
141
0.0
177
0
142
1.0
295
0
296
0
143
3.75
271
0
272
9
273
9
  0
DICTIONARY
  5
2D
330
A
100
AcDbDictionary
280
1
281
1
  3
CREATED_BY_EZDXF
350
2E
  3
WRITTEN_BY_EZDXF
350
BE
  0
DICTIONARYVAR
  5
2E
330
2D
100
DictionaryVariables
280
0
  1
1.4.4 @ 2026-09-01T09:20:48.874359+00:00
  0
DICTIONARYVAR
  5
BE
330
2D
100
DictionaryVariables
280
0
  1
1.4.4 @ 2026-09-01T09:20:48.893178+00:00
  0
ENDSEC
  0
EOF
