  0
SECTION
  2
HEADER
  9
$ACADVER
  1
AC1032
  9
$ACADMAINTVER
 90
4
  9
$DWGCODEPAGE
  3
ANSI_1252
  9
$LASTSAVEDBY
  1
ezdxf
  9
$REQUIREDVERSIONS
160
0
  9
$INSBASE
 10
0.0
 20
0.0
 30
0.0
  9
$EXTMIN
 10
1e+20
 20
1e+20
 30
1e+20
  9
$EXTMAX
 10
-1e+20
 20
-1e+20
 30
-1e+20
  9
$LIMMIN
 10
0.0
 20
0.0
  9
$LIMMAX
 10
420.0
 20
297.0
  9
$ORTHOMODE
 70
0
  9
$REGENMODE
 70
1
  9
$FILLMODE
 70
1
  9
$QTEXTMODE
 70
0
  9
$MIRRTEXT
 70
1
  9
$LTSCALE
 40
1.0
  9
$ATTMODE
 70
1
  9
$TEXTSIZE
 40
2.5
  9
$TRACEWID
 40
1.0
  9
$TEXTSTYLE
  7
Standard
  9
$CLAYER
  8
0
  9
$CELTYPE
  6
ByLayer
  9
$CECOLOR
 62
256
  9
$CELTSCALE
 40
1.0
  9
$DISPSILH
 70
0
  9
$DIMSCALE
 40
1.0
  9
$DIMASZ
 40
2.5
  9
$DIMEXO
 40
0.625
  9
$DIMDLI
 40
3.75
  9
$DIMRND
 40
0.0
  9
$DIMDLE
 40
0.0
  9
$DIMEXE
 40
1.25
  9
$DIMTP
 40
0.0
  9
$DIMTM
 40
0.0
  9
$DIMTXT
 40
2.5
  9
$DIMCEN
 40
2.5
  9
$DIMTSZ
 40
0.0
  9
$DIMTOL
 70
0
  9
$DIMLIM
 70
0
  9
$DIMTIH
 70
0
  9
$DIMTOH
 70
0
  9
$DIMSE1
 70
0
  9
$DIMSE2
 70
0
  9
$DIMTAD
 70
1
  9
$DIMZIN
 70
8
  9
$DIMBLK
  1

  9
$DIMASO
 70
1
  9
$DIMSHO
 70
1
  9
$DIMPOST
  1

  9
$DIMAPOST
  1

  9
$DIMALT
 70
0
  9
$DIMALTD
 70
3
  9
$DIMALTF
 40
0.03937007874
  9
$DIMLFAC
 40
1.0
  9
$DIMTOFL
 70
1
  9
$DIMTVP
 40
0.0
  9
$DIMTIX
 70
0
  9
$DIMSOXD
 70
0
  9
$DIMSAH
 70
0
  9
$DIMBLK1
  1

  9
$DIMBLK2
  1

  9
$DIMSTYLE
  2
ISO-25
  9
$DIMCLRD
 70
0
  9
$DIMCLRE
 70
0
  9
$DIMCLRT
 70
0
  9
$DIMTFAC
 40
1.0
  9
$DIMGAP
 40
0.625
  9
$DIMJUST
 70
0
  9
$DIMSD1
 70
0
  9
$DIMSD2
 70
0
  9
$DIMTOLJ
 70
0
  9
$DIMTZIN
 70
8
  9
$DIMALTZ
 70
0
  9
$DIMALTTZ
 70
0
  9
$DIMUPT
 70
0
  9
$DIMDEC
 70
2
  9
$DIMTDEC
 70
2
  9
$DIMALTU
 70
2
  9
$DIMALTTD
 70
3
  9
$DIMTXSTY
  7
Standard
  9
$DIMAUNIT
 70
0
  9
$DIMADEC
 70
0
  9
$DIMALTRND
 40
0.0
  9
$DIMAZIN
 70
0
  9
$DIMDSEP
 70
44
  9
$DIMATFIT
 70
3
  9
$DIMFRAC
 70
0
  9
$DIMLDRBLK
  1

  9
$DIMLUNIT
 70
2
  9
$DIMLWD
 70
-2
  9
$DIMLWE
 70
-2
  9
$DIMTMOVE
 70
0
  9
$DIMFXL
 40
1.0
  9
$DIMFXLON
 70
0
  9
$DIMJOGANG
 40
0.785398163397
  9
$DIMTFILL
 70
0
  9
$DIMTFILLCLR
 70
0
  9
$DIMARCSYM
 70
0
  9
$DIMLTYPE
  6

  9
$DIMLTEX1
  6

  9
$DIMLTEX2
  6

  9
$DIMTXTDIRECTION
 70
0
  9
$LUNITS
 70
2
  9
$LUPREC
 70
4
  9
$SKETCHINC
 40
1.0
  9
$FILLETRAD
 40
10.0
  9
$AUNITS
 70
0
  9
$AUPREC
 70
2
  9
$MENU
  1
.
  9
$ELEVATION
 40
0.0
  9
$PELEVATION
 40
0.0
  9
$THICKNESS
 40
0.0
  9
$LIMCHECK
 70
0
  9
$CHAMFERA
 40
0.0
  9
$CHAMFERB
 40
0.0
  9
$CHAMFERC
 40
0.0
  9
$CHAMFERD
 40
0.0
  9
$SKPOLY
 70
0
  9
$TDCREATE
 40
2461285.722777778
  9
$TDUCREATE
 40
2458532.153996898
  9
$TDUPDATE
 40
2461285.722777778
  9
$TDUUPDATE
 40
2458532.1544311
  9
$TDINDWG
 40
0.0
  9
$TDUSRTIMER
 40
0.0
  9
$USRTIMER
 70
1
  9
$ANGBASE
 50
0.0
  9
$ANGDIR
 70
0
  9
$PDMODE
 70
0
  9
$PDSIZE
 40
0.0
  9
$PLINEWID
 40
0.0
  9
$SPLFRAME
 70
0
  9
$SPLINETYPE
 70
6
  9
$SPLINESEGS
 70
8
  9
$HANDSEED
  5
BE
  9
$SURFTAB1
 70
6
  9
$SURFTAB2
 70
6
  9
$SURFTYPE
 70
6
  9
$SURFU
 70
6
  9
$SURFV
 70
6
  9
$UCSBASE
  2

  9
$UCSNAME
  2

  9
$UCSORG
 10
0.0
 20
0.0
 30
0.0
  9
$UCSXDIR
 10
1.0
 20
0.0
 30
0.0
  9
$UCSYDIR
 10
0.0
 20
1.0
 30
0.0
  9
$UCSORTHOREF
  2

  9
$UCSORTHOVIEW
 70
0
  9
$UCSORGTOP
 10
0.0
 20
0.0
 30
0.0
  9
$UCSORGBOTTOM
 10
0.0
 20
0.0
 30
0.0
  9
$UCSORGLEFT
 10
0.0
 20
0.0
 30
0.0
  9
$UCSORGRIGHT
 10
0.0
 20
0.0
 30
0.0
  9
$UCSORGFRONT
 10
0.0
 20
0.0
 30
0.0
  9
$UCSORGBACK
 10
0.0
 20
0.0
 30
0.0
  9
$PUCSBASE
  2

  9
$PUCSNAME
  2

  9
$PUCSORG
 10
0.0
 20
0.0
 30
0.0
  9
$PUCSXDIR
 10
1.0
 20
0.0
 30
0.0
  9
$PUCSYDIR
 10
0.0
 20
1.0
 30
0.0
  9
$PUCSORTHOREF
  2

  9
$PUCSORTHOVIEW
 70
0
  9
$PUCSORGTOP
 10
0.0
 20
0.0
 30
0.0
  9
$PUCSORGBOTTOM
 10
0.0
 20
0.0
 30
0.0
  9
$PUCSORGLEFT
 10
0.0
 20
0.0
 30
0.0
  9
$PUCSORGRIGHT
 10
0.0
 20
0.0
 30
0.0
  9
$PUCSORGFRONT
 10
0.0
 20
0.0
 30
0.0
  9
$PUCSORGBACK
 10
0.0
 20
0.0
 30
0.0
  9
$USERI1
 70
0
  9
$USERI2
 70
0
  9
$USERI3
 70
0
  9
$USERI4
 70
0
  9
$USERI5
 70
0
  9
$USERR1
 40
0.0
  9
$USERR2
 40
0.0
  9
$USERR3
 40
0.0
  9
$USERR4
 40
0.0
  9
$USERR5
 40
0.0
  9
$WORLDVIEW
 70
1
  9
$SHADEDGE
 70
3
  9
$SHADEDIF
 70
70
  9
$TILEMODE
 70
1
  9
$MAXACTVP
 70
64
  9
$PINSBASE
 10
0.0
 20
0.0
 30
0.0
  9
$PLIMCHECK
 70
0
  9
$PEXTMIN
 10
1e+20
 20
1e+20
 30
1e+20
  9
$PEXTMAX
 10
-1e+20
 20
-1e+20
 30
-1e+20
  9
$PLIMMIN
 10
0.0
 20
0.0
  9
$PLIMMAX
 10
420.0
 20
297.0
  9
$UNITMODE
 70
0
  9
$VISRETAIN
 70
1
  9
$PLINEGEN
 70
0
  9
$PSLTSCALE
 70
1
  9
$TREEDEPTH
 70
3020
  9
$CMLSTYLE
  2
Standard
  9
$CMLJUST
 70
0
  9
$CMLSCALE
 40
20.0
  9
$PROXYGRAPHICS
 70
1
  9
$MEASUREMENT
 70
1
  9
$CELWEIGHT
370
-1
  9
$ENDCAPS
280
0
  9
$JOINSTYLE
280
0
  9
$LWDISPLAY
290
0
  9
$INSUNITS
 70
6
  9
$HYPERLINKBASE
  1

  9
$STYLESHEET
  1

  9
$XEDIT
290
1
  9
$CEPSNTYPE
380
0
  9
$PSTYLEMODE
290
1
  9
$FINGERPRINTGUID
  2
{A0761F69-2BE3-470E-8313-55B4905D8158}
  9
$VERSIONGUID
  2
{99E0CECD-B269-4372-84AE-6D196BA13B89}
  9
$EXTNAMES
290
1
  9
$PSVPSCALE
 40
0.0
  9
$OLESTARTUP
290
0
  9
$SORTENTS
280
127
  9
$INDEXCTL
280
0
  9
$HIDETEXT
280
1
  9
$XCLIPFRAME
280
1
  9
$HALOGAP
280
0
  9
$OBSCOLOR
 70
257
  9
$OBSLTYPE
280
0
  9
$INTERSECTIONDISPLAY
280
0
  9
$INTERSECTIONCOLOR
 70
257
  9
$DIMASSOC
280
2
  9
$PROJECTNAME
  1

  9
$CAMERADISPLAY
290
0
  9
$LENSLENGTH
 40
50.0
  9
$CAMERAHEIGHT
 40
0.0
  9
$STEPSPERSEC
 40
24.0
  9
$STEPSIZE
 40
100.0
  9
$3DDWFPREC
 40
2.0
  9
$PSOLWIDTH
 40
0.005
  9
$PSOLHEIGHT
 40
0.08
  9
$LOFTANG1
 40
1.570796326795
  9
$LOFTANG2
 40
1.570796326795
  9
$LOFTMAG1
 40
0.0
  9
$LOFTMAG2
 40
0.0
  9
$LOFTPARAM
 70
7
  9
$LOFTNORMALS
280
1
  9
$LATITUDE
 40
37.795
  9
$LONGITUDE
 40
-122.394
  9
$NORTHDIRECTION
 40
0.0
  9
$TIMEZONE
 70
-8000
  9
$LIGHTGLYPHDISPLAY
280
1
  9
$TILEMODELIGHTSYNCH
280
1
  9
$CMATERIAL
347
20
  9
$SOLIDHIST
280
0
  9
$SHOWHIST
280
1
  9
$DWFFRAME
280
2
  9
$DGNFRAME
280
2
  9
$REALWORLDSCALE
290
1
  9
$INTERFERECOLOR
 62
256
  9
$CSHADOW
280
0
  9
$SHADOWPLANELOCATION
 40
0.0
  0
ENDSEC
  0
SECTION
  2
CLASSES
  0
CLASS
  1
ACDBDICTIONARYWDFLT
  2
AcDbDictionaryWithDefault
  3
ObjectDBX Classes
 90
0
 91
0
280
0
281
0
  0
CLASS
  1
SUN
  2
AcDbSun
  3
SCENEOE
 90
1153
 91
0
280
0
281
0
  0
CLASS
  1
VISUALSTYLE
  2
AcDbVisualStyle
  3
ObjectDBX Classes
 90
4095
 91
0
280
0
281
0
  0
CLASS
  1
MATERIAL
  2
AcDbMaterial
  3
ObjectDBX Classes
 90
1153
 91
0
280
0
281
0
  0
CLASS
  1
SCALE
  2
AcDbScale
  3
ObjectDBX Classes
 90
1153
 91
0
280
0
281
0
  0
CLASS
  1
TABLESTYLE
  2
AcDbTableStyle
  3
ObjectDBX Classes
 90
4095
 91
0
280
0
281
0
  0
CLASS
  1
MLEADERSTYLE
  2
AcDbMLeaderStyle
  3
ACDB_MLEADERSTYLE_CLASS
 90
4095
 91
0
280
0
281
0
  0
CLASS
  1
DICTIONARYVAR
  2
AcDbDictionaryVar
  3
ObjectDBX Classes
 90
0
 91
0
280
0
281
0
  0
CLASS
  1
CELLSTYLEMAP
  2
AcDbCellStyleMap
  3
ObjectDBX Classes
 90
1152
 91
0
280
0
281
0
  0
CLASS
  1
MENTALRAYRENDERSETTINGS
  2
AcDbMentalRayRenderSettings
  3
SCENEOE
 90
1024
 91
0
280
0
281
0
  0
CLASS
  1
ACDBDETAILVIEWSTYLE
  2
AcDbDetailViewStyle
  3
ObjectDBX Classes
 90
1025
 91
0
280
0
281
0
  0
CLASS
  1
ACDBSECTIONVIEWSTYLE
  2
AcDbSectionViewStyle
  3
ObjectDBX Classes
 90
1025
 91
0
280
0
281
0
  0
CLASS
  1
RASTERVARIABLES
  2
AcDbRasterVariables
  3
ISM
 90
0
 91
0
280
0
281
0
  0
CLASS
  1
LAYOUT
  2
AcDbLayout
  3
ObjectDBX Classes
 90
0
 91
0
280
0
281
0
  0
CLASS
  1
ACDBPLACEHOLDER
  2
AcDbPlaceHolder
  3
ObjectDBX Classes
 90
0
 91
0
280
0
281
0
  0
ENDSEC
  0
SECTION
  2
TABLES
  0
TABLE
  2
VPORT
  5
8
330
0
100
AcDbSymbolTable
 70
1
  0
VPORT
  5
23
330
8
100
AcDbSymbolTableRecord
100
AcDbViewportTableRecord
  2
*Active
 70
0
 10
0.0
 20
0.0
 11
1.0
 21
1.0
 12
0.0
 22
0.0
 13
0.0
 23
0.0
 14
0.5
 24
0.5
 15
0.5
 25
0.5
 16
0.0
 26
0.0
 36
1.0
 17
0.0
 27
0.0
 37
0.0
 40
1000.0
 41
1.34
 42
50.0
 43
0.0
 44
0.0
 50
0.0
 51
0.0
 71
0
 72
1000
 73
1
 74
3
 75
0
 76
0
 77
0
 78
0
281
0
 65
0
146
0.0
  0
ENDTAB
  0
TABLE
  2
LTYPE
  5
2
330
0
100
AcDbSymbolTable
 70
3
  0
LTYPE
  5
24
330
2
100
AcDbSymbolTableRecord
100
AcDbLinetypeTableRecord
  2
ByBlock
 70
0
  3

 72
65
 73
0
 40
0.0
  0
LTYPE
  5
25
330
2
100
AcDbSymbolTableRecord
100
AcDbLinetypeTableRecord
  2
ByLayer
 70
0
  3

 72
65
 73
0
 40
0.0
  0
LTYPE
  5
26
330
2
100
AcDbSymbolTableRecord
100
AcDbLinetypeTableRecord
  2
Continuous
 70
0
  3

 72
65
 73
0
 40
0.0
  0
ENDTAB
  0
TABLE
  2
LAYER
  5
1
330
0
100
AcDbSymbolTable
 70
19
  0
LAYER
  5
27
330
1
100
AcDbSymbolTableRecord
100
AcDbLayerTableRecord
  2
0
 70
0
 62
7
  6
Continuous
370
-3
390
13
347
21
  0
LAYER
  5
28
330
1
100
AcDbSymbolTableRecord
100
AcDbLayerTableRecord
  2
Defpoints
 70
0
 62
7
  6
Continuous
290
0
370
-3
390
13
347
21
  0
LAYER
  5
2F
330
1
100
AcDbSymbolTableRecord
100
AcDbLayerTableRecord
  2
PCB_OUTLINE
 70
0
 62
7
  6
Continuous
370
-3
390
13
347
21
  0
LAYER
  5
30
330
1
100
AcDbSymbolTableRecord
100
AcDbLayerTableRecord
  2
SINK_AREA
 70
0
 62
3
  6
Continuous
370
-3
390
13
347
21
  0
LAYER
  5
31
330
1
100
AcDbSymbolTableRecord
100
AcDbLayerTableRecord
  2
KEEPOUT_BOT
 70
0
 62
1
  6
Continuous
370
-3
390
13
347
21
  0
LAYER
  5
32
330
1
100
AcDbSymbolTableRecord
100
AcDbLayerTableRecord
  2
SOLDER_WINDOW_TOP
 70
0
 62
2
  6
Continuous
370
-3
390
13
347
21
  0
LAYER
  5
33
330
1
100
AcDbSymbolTableRecord
100
AcDbLayerTableRecord
  2
POSITIONING_PINS
 70
0
 62
5
  6
Continuous
370
-3
390
13
347
21
  0
LAYER
  5
34
330
1
100
AcDbSymbolTableRecord
100
AcDbLayerTableRecord
  2
CLIPS
 70
0
 62
6
  6
Continuous
370
-3
390
13
347
21
  0
LAYER
  5
35
330
1
100
AcDbSymbolTableRecord
100
AcDbLayerTableRecord
  2
FIXTURE_OUTLINE
 70
0
 62
4
  6
Continuous
370
-3
390
13
347
21
  0
LAYER
  5
36
330
1
100
AcDbSymbolTableRecord
100
AcDbLayerTableRecord
  2
HANDHOLDS
 70
0
 62
6
  6
Continuous
370
-3
390
13
347
21
  0
LAYER
  5
37
330
1
100
AcDbSymbolTableRecord
100
AcDbLayerTableRecord
  2
RAILS
 70
0
 62
8
  6
Continuous
370
-3
390
13
347
21
  0
LAYER
  5
38
330
1
100
AcDbSymbolTableRecord
100
AcDbLayerTableRecord
  2
SOLDER_BARRIERS
 70
0
 62
30
  6
Continuous
370
-3
390
13
347
21
  0
LAYER
  5
39
330
1
100
AcDbSymbolTableRecord
100
AcDbLayerTableRecord
  2
BARRIER_MOUNT_HOLES
 70
0
 62
30
  6
Continuous
370
-3
390
13
347
21
  0
LAYER
  5
3A
330
1
100
AcDbSymbolTableRecord
100
AcDbLayerTableRecord
  2
PCB_DRILL
 70
0
 62
9
  6
Continuous
370
-3
390
13
347
21
  0
LAYER
  5
3B
330
1
100
AcDbSymbolTableRecord
100
AcDbLayerTableRecord
  2
SPRING_CLIPS
 70
0
 62
41
  6
Continuous
370
-3
390
13
347
21
  0
LAYER
  5
3C
330
1
100
AcDbSymbolTableRecord
100
AcDbLayerTableRecord
  2
PRESSURE_RELIEF
 70
0
 62
40
  6
Continuous
370
-3
390
13
347
21
  0
LAYER
  5
3D
330
1
100
AcDbSymbolTableRecord
100
AcDbLayerTableRecord
  2
TOOLING_HOLES
 70
0
 62
8
  6
Continuous
370
-3
390
13
347
21
  0
LAYER
  5
3E
330
1
100
AcDbSymbolTableRecord
100
AcDbLayerTableRecord
  2
FIDUCIALS
 70
0
 62
5
  6
Continuous
370
-3
390
13
347
21
  0
LAYER
  5
3F
330
1
100
AcDbSymbolTableRecord
100
AcDbLayerTableRecord
  2
DIMENSIONS
 70
0
 62
7
  6
Continuous
370
-3
390
13
347
21
  0
ENDTAB
  0
TABLE
  2
STYLE
  5
5
330
0
100
AcDbSymbolTable
 70
1
  0
STYLE
  5
29
330
5
100
AcDbSymbolTableRecord
100
AcDbTextStyleTableRecord
  2
Standard
 70
0
 40
0.0
 41
1.0
 50
0.0
 71
0
 42
2.5
  3
txt
  4

  0
ENDTAB
  0
TABLE
  2
VIEW
  5
7
330
0
100
AcDbSymbolTable
 70
0
  0
ENDTAB
  0
TABLE
  2
UCS
  5
6
330
0
100
AcDbSymbolTable
 70
0
  0
ENDTAB
  0
TABLE
  2
APPID
  5
3
330
0
100
AcDbSymbolTable
 70
3
  0
APPID
  5
2A
330
3
100
AcDbSymbolTableRecord
100
AcDbRegAppTableRecord
  2
ACAD
 70
0
  0
APPID
  5
BB
330
3
100
AcDbSymbolTableRecord
100
AcDbRegAppTableRecord
  2
HATCHBACKGROUNDCOLOR
 70
0
  0
APPID
  5
BC
330
3
100
AcDbSymbolTableRecord
100
AcDbRegAppTableRecord
  2
EZDXF
 70
0
  0
ENDTAB
  0
TABLE
  2
DIMSTYLE
  5
4
330
0
100
AcDbSymbolTable
 70
2
100
AcDbDimStyleTable
  0
DIMSTYLE
105
2B
330
4
100
AcDbSymbolTableRecord
100
AcDbDimStyleTableRecord
  2
Standard
 70
0
 40
1.0
 41
2.5
 42
0.625
 43
3.75
 44
1.25
 45
0.0
 46
0.0
 47
0.0
 48
0.0
 49
2.5
140
2.5
141
2.5
142
0.0
143
0.03937007874
144
1.0
145
0.0
146
1.0
147
0.625
148
0.0
 69
0
 70
0
 71
0
 72
0
 73
0
 74
0
 75
0
 76
0
 77
1
 78
8
 79
3
170
0
171
3
172
1
173
0
174
0
175
0
176
0
177
0
178
0
179
2
271
2
272
2
273
2
274
3
275
0
276
0
277
2
278
44
279
0
280
0
281
0
282
0
283
0
284
8
285
0
286
0
288
0
289
3
290
0
371
-2
372
-2
  0
DIMSTYLE
105
5A
330
4
100
AcDbSymbolTableRecord
100
AcDbDimStyleTableRecord
  2
FIXTURE_DIM
 70
0
 40
1.0
 41
1.5
 42
0.625
 43
3.75
 44
1.25
 45
0.0
 46
0.0
 47
0.0
 48
0.0
 49
2.5
140
2.5
141
2.5
142
0.0
143
0.03937007874
144
1.0
145
0.0
146
1.0
147
0.625
148
0.0
 69
0
 70
0
 71
0
 72
0
 73
0
 74
0
 75
0
 76
0
 77
1
 78
8
 79
3
170
0
171
3
172
1
173
0
174
0
175
0
176
7
177
7
178
7
179
2
271
2
272
2
273
2
274
3
275
0
276
0
277
2
278
44
279
0
280
0
281
0
282
0
283
0
284
8
285
0
286
0
288
0
289
3
290
0
371
-2
372
-2
  0
ENDTAB
  0
TABLE
  2
BLOCK_RECORD
  5
9
330
0
100
AcDbSymbolTable
 70
8
  0
BLOCK_RECORD
  5
17
330
9
100
AcDbSymbolTableRecord
100
AcDbBlockTableRecord
  2
*Model_Space
340
1A
 70
0
280
1
281
0
  0
BLOCK_RECORD
  5
1B
330
9
100
AcDbSymbolTableRecord
100
AcDbBlockTableRecord
  2
*Paper_Space
340
1E
 70
0
280
1
281
0
  0
BLOCK_RECORD
  5
5C
330
9
100
AcDbSymbolTableRecord
100
AcDbBlockTableRecord
  2
*D1
340
0
 70
0
280
1
281
0
  0
BLOCK_RECORD
  5
61
330
9
100
AcDbSymbolTableRecord
100
AcDbBlockTableRecord
  2
_CLOSEDFILLED
340
0
 70
0
280
1
281
0
  0
BLOCK_RECORD
  5
70
330
9
100
AcDbSymbolTableRecord
100
AcDbBlockTableRecord
  2
*D2
340
0
 70
0
280
1
281
0
  0
BLOCK_RECORD
  5
80
330
9
100
AcDbSymbolTableRecord
100
AcDbBlockTableRecord
  2
*D3
340
0
 70
0
280
1
281
0
  0
BLOCK_RECORD
  5
90
330
9
100
AcDbSymbolTableRecord
100
AcDbBlockTableRecord
  2
*D4
340
0
 70
0
280
1
281
0
  0
BLOCK_RECORD
  5
A0
330
9
100
AcDbSymbolTableRecord
100
AcDbBlockTableRecord
  2
*D5
340
0
 70
0
280
1
281
0
  0
ENDTAB
  0
ENDSEC
  0
SECTION
  2
BLOCKS
  0
BLOCK
  5
18
330
17
100
AcDbEntity
  8
0
100
AcDbBlockBegin
  2
*Model_Space
 70
0
 10
0.0
 20
0.0
 30
0.0
  3
*Model_Space
  1

  0
ENDBLK
  5
19
330
17
100
AcDbEntity
  8
0
100
AcDbBlockEnd
  0
BLOCK
  5
1C
330
1B
100
AcDbEntity
  8
0
100
AcDbBlockBegin
  2
*Paper_Space
 70
0
 10
0.0
 20
0.0
 30
0.0
  3
*Paper_Space
  1

  0
ENDBLK
  5
1D
330
1B
100
AcDbEntity
  8
0
100
AcDbBlockEnd
  0
BLOCK
  5
5D
330
5C
100
AcDbEntity
  8
0
100
AcDbBlockBegin
  2
*D1
 70
1
 10
0.0
 20
0.0
 30
0.0
  3
*D1
  1

  0
LINE
  5
5F
330
5C
100
AcDbEntity
  8
0
 62
7
100
AcDbLine
 10
-25.0
 20
-35.0
 30
0.0
 11
-25.0
 21
-43.0
 31
0.0
  0
LINE
  5
60
330
5C
100
AcDbEntity
  8
0
 62
7
100
AcDbLine
 10
115.0
 20
-35.0
 30
0.0
 11
115.0
 21
-43.0
 31
0.0
  0
INSERT
  5
65
330
5C
100
AcDbEntity
  8
0
 62
7
100
AcDbBlockReference
  2
_CLOSEDFILLED
 10
-25.0
 20
-43.0
 30
0.0
 41
1.5
 42
1.5
 50
180.0
  0
INSERT
  5
67
330
5C
100
AcDbEntity
  8
0
 62
7
100
AcDbBlockReference
  2
_CLOSEDFILLED
 10
115.0
 20
-43.0
 30
0.0
 41
1.5
 42
1.5
  0
LINE
  5
69
330
5C
100
AcDbEntity
  8
0
 62
7
100
AcDbLine
 10
-23.5
 20
-43.0
 30
0.0
 11
41.25
 21
-43.0
 31
0.0
  0
LINE
  5
6A
330
5C
100
AcDbEntity
  8
0
 62
7
100
AcDbLine
 10
48.75
 20
-43.0
 30
0.0
 11
113.5
 21
-43.0
 31
0.0
  0
MTEXT
  5
6B
330
5C
100
AcDbEntity
  8
0
 62
7
100
AcDbMText
 10
45.0
 20
-43.0
 30
0.0
 40
2.5
 71
5
  1
140
  0
POINT
  5
6C
330
5C
100
AcDbEntity
  8
Defpoints
100
AcDbPoint
 10
-25.0
 20
-43.0
 30
0.0
  0
POINT
  5
6D
330
5C
100
AcDbEntity
  8
Defpoints
100
AcDbPoint
 10
-25.0
 20
-35.0
 30
0.0
  0
POINT
  5
6E
330
5C
100
AcDbEntity
  8
Defpoints
100
AcDbPoint
 10
115.0
 20
-35.0
 30
0.0
  0
ENDBLK
  5
5E
330
5C
100
AcDbEntity
  8
0
100
AcDbBlockEnd
  0
BLOCK
  5
62
330
61
100
AcDbEntity
  8
0
100
AcDbBlockBegin
  2
_CLOSEDFILLED
 70
0
 10
0.0
 20
0.0
 30
0.0
  3
_CLOSEDFILLED
  1

  0
SOLID
  5
64
330
61
100
AcDbEntity
  8
0
  6
BYBLOCK
 62
0
100
AcDbTrace
 10
-1.0
 20
0.16439898372402537
 30
0.0
 11
0.0
 21
0.0
 31
0.0
 12
-1.0
 22
-0.16439898372402537
 32
0.0
 13
-1.0
 23
-0.16439898372402537
 33
0.0
  0
ENDBLK
  5
63
330
61
100
AcDbEntity
  8
0
100
AcDbBlockEnd
  0
BLOCK
  5
71
330
70
100
AcDbEntity
  8
0
100
AcDbBlockBegin
  2
*D2
 70
1
 10
0.0
 20
0.0
 30
0.0
  3
*D2
  1

  0
LINE
  5
73
330
70
100
AcDbEntity
  8
0
 62
7
100
AcDbLine
 10
115.0
 20
-35.0
 30
0.0
 11
123.0
 21
-35.0
 31
0.0
  0
LINE
  5
74
330
70
100
AcDbEntity
  8
0
 62
7
100
AcDbLine
 10
115.0
 20
95.0
 30
0.0
 11
123.0
 21
95.0
 31
0.0
  0
INSERT
  5
75
330
70
100
AcDbEntity
  8
0
 62
7
100
AcDbBlockReference
  2
_CLOSEDFILLED
 10
123.0
 20
-35.0
 30
0.0
 41
1.5
 42
1.5
 50
270.0
  0
INSERT
  5
77
330
70
100
AcDbEntity
  8
0
 62
7
100
AcDbBlockReference
  2
_CLOSEDFILLED
 10
123.0
 20
95.0
 30
0.0
 41
1.5
 42
1.5
 50
90.0
  0
LINE
  5
79
330
70
100
AcDbEntity
  8
0
 62
7
100
AcDbLine
 10
123.0
 20
-33.5
 30
0.0
 11
123.0
 21
26.25
 31
0.0
  0
LINE
  5
7A
330
70
100
AcDbEntity
  8
0
 62
7
100
AcDbLine
 10
123.0
 20
33.75
 30
0.0
 11
123.0
 21
93.5
 31
0.0
  0
MTEXT
  5
7B
330
70
100
AcDbEntity
  8
0
 62
7
100
AcDbMText
 10
123.0
 20
30.0
 30
0.0
 40
2.5
 71
5
  1
130
 50
90.0
  0
POINT
  5
7C
330
70
100
AcDbEntity
  8
Defpoints
100
AcDbPoint
 10
123.0
 20
-35.0
 30
0.0
  0
POINT
  5
7D
330
70
100
AcDbEntity
  8
Defpoints
100
AcDbPoint
 10
115.0
 20
-35.0
 30
0.0
  0
POINT
  5
7E
330
70
100
AcDbEntity
  8
Defpoints
100
AcDbPoint
 10
115.0
 20
95.0
 30
0.0
  0
ENDBLK
  5
72
330
70
100
AcDbEntity
  8
0
100
AcDbBlockEnd
  0
BLOCK
  5
81
330
80
100
AcDbEntity
  8
0
100
AcDbBlockBegin
  2
*D3
 70
1
 10
0.0
 20
0.0
 30
0.0
  3
*D3
  1

  0
LINE
  5
83
330
80
100
AcDbEntity
  8
0
 62
7
100
AcDbLine
 10
0.0
 20
60.0
 30
0.0
 11
0.0
 21
65.0
 31
0.0
  0
LINE
  5
84
330
80
100
AcDbEntity
  8
0
 62
7
100
AcDbLine
 10
90.0
 20
60.0
 30
0.0
 11
90.0
 21
65.0
 31
0.0
  0
INSERT
  5
85
330
80
100
AcDbEntity
  8
0
 62
7
100
AcDbBlockReference
  2
_CLOSEDFILLED
 10
0.0
 20
65.0
 30
0.0
 41
1.5
 42
1.5
 50
180.0
  0
INSERT
  5
87
330
80
100
AcDbEntity
  8
0
 62
7
100
AcDbBlockReference
  2
_CLOSEDFILLED
 10
90.0
 20
65.0
 30
0.0
 41
1.5
 42
1.5
  0
LINE
  5
89
330
80
100
AcDbEntity
  8
0
 62
7
100
AcDbLine
 10
1.5
 20
65.0
 30
0.0
 11
42.5
 21
65.0
 31
0.0
  0
LINE
  5
8A
330
80
100
AcDbEntity
  8
0
 62
7
100
AcDbLine
 10
47.5
 20
65.0
 30
0.0
 11
88.5
 21
65.0
 31
0.0
  0
MTEXT
  5
8B
330
80
100
AcDbEntity
  8
0
 62
7
100
AcDbMText
 10
45.0
 20
65.0
 30
0.0
 40
2.5
 71
5
  1
90
  0
POINT
  5
8C
330
80
100
AcDbEntity
  8
Defpoints
100
AcDbPoint
 10
0.0
 20
65.0
 30
0.0
  0
POINT
  5
8D
330
80
100
AcDbEntity
  8
Defpoints
100
AcDbPoint
 10
0.0
 20
60.0
 30
0.0
  0
POINT
  5
8E
330
80
100
AcDbEntity
  8
Defpoints
100
AcDbPoint
 10
90.0
 20
60.0
 30
0.0
  0
ENDBLK
  5
82
330
80
100
AcDbEntity
  8
0
100
AcDbBlockEnd
  0
BLOCK
  5
91
330
90
100
AcDbEntity
  8
0
100
AcDbBlockBegin
  2
*D4
 70
1
 10
0.0
 20
0.0
 30
0.0
  3
*D4
  1

  0
LINE
  5
93
330
90
100
AcDbEntity
  8
0
 62
7
100
AcDbLine
 10
0.0
 20
0.0
 30
0.0
 11
-5.0
 21
0.0
 31
0.0
  0
LINE
  5
94
330
90
100
AcDbEntity
  8
0
 62
7
100
AcDbLine
 10
0.0
 20
60.0
 30
0.0
 11
-5.0
 21
60.0
 31
0.0
  0
INSERT
  5
95
330
90
100
AcDbEntity
  8
0
 62
7
100
AcDbBlockReference
  2
_CLOSEDFILLED
 10
-5.0
 20
0.0
 30
0.0
 41
1.5
 42
1.5
 50
270.0
  0
INSERT
  5
97
330
90
100
AcDbEntity
  8
0
 62
7
100
AcDbBlockReference
  2
_CLOSEDFILLED
 10
-5.0
 20
60.0
 30
0.0
 41
1.5
 42
1.5
 50
90.0
  0
LINE
  5
99
330
90
100
AcDbEntity
  8
0
 62
7
100
AcDbLine
 10
-5.0
 20
1.5
 30
0.0
 11
-5.0
 21
27.5
 31
0.0
  0
LINE
  5
9A
330
90
100
AcDbEntity
  8
0
 62
7
100
AcDbLine
 10
-5.0
 20
32.5
 30
0.0
 11
-5.0
 21
58.5
 31
0.0
  0
MTEXT
  5
9B
330
90
100
AcDbEntity
  8
0
 62
7
100
AcDbMText
 10
-5.0
 20
30.0
 30
0.0
 40
2.5
 71
5
  1
60
 50
90.0
  0
POINT
  5
9C
330
90
100
AcDbEntity
  8
Defpoints
100
AcDbPoint
 10
-5.0
 20
0.0
 30
0.0
  0
POINT
  5
9D
330
90
100
AcDbEntity
  8
Defpoints
100
AcDbPoint
 10
0.0
 20
0.0
 30
0.0
  0
POINT
  5
9E
330
90
100
AcDbEntity
  8
Defpoints
100
AcDbPoint
 10
0.0
 20
60.0
 30
0.0
  0
ENDBLK
  5
92
330
90
100
AcDbEntity
  8
0
100
AcDbBlockEnd
  0
BLOCK
  5
A1
330
A0
100
AcDbEntity
  8
0
100
AcDbBlockBegin
  2
*D5
 70
1
 10
0.0
 20
0.0
 30
0.0
  3
*D5
  1

  0
LINE
  5
A3
330
A0
100
AcDbEntity
  8
0
 62
7
100
AcDbLine
 10
5.0
 20
5.0
 30
0.0
 11
5.0
 21
-1.0
 31
0.0
  0
LINE
  5
A4
330
A0
100
AcDbEntity
  8
0
 62
7
100
AcDbLine
 10
85.0
 20
55.0
 30
0.0
 11
85.0
 21
-1.0
 31
0.0
  0
INSERT
  5
A5
330
A0
100
AcDbEntity
  8
0
 62
7
100
AcDbBlockReference
  2
_CLOSEDFILLED
 10
5.0
 20
-1.0
 30
0.0
 41
1.5
 42
1.5
 50
180.0
  0
INSERT
  5
A7
330
A0
100
AcDbEntity
  8
0
 62
7
100
AcDbBlockReference
  2
_CLOSEDFILLED
 10
85.0
 20
-1.0
 30
0.0
 41
1.5
 42
1.5
  0
LINE
  5
A9
330
A0
100
AcDbEntity
  8
0
 62
7
100
AcDbLine
 10
6.5
 20
-1.0000000000000002
 30
0.0
 11
42.5
 21
-1.0000000000000002
 31
0.0
  0
LINE
  5
AA
330
A0
100
AcDbEntity
  8
0
 62
7
100
AcDbLine
 10
47.5
 20
-1.0
 30
0.0
 11
83.5
 21
-1.0
 31
0.0
  0
MTEXT
  5
AB
330
A0
100
AcDbEntity
  8
0
 62
7
100
AcDbMText
 10
45.0
 20
-1.0
 30
0.0
 40
2.5
 71
5
  1
80
  0
POINT
  5
AC
330
A0
100
AcDbEntity
  8
Defpoints
100
AcDbPoint
 10
5.0
 20
-1.0
 30
0.0
  0
POINT
  5
AD
330
A0
100
AcDbEntity
  8
Defpoints
100
AcDbPoint
 10
5.0
 20
5.0
 30
0.0
  0
POINT
  5
AE
330
A0
100
AcDbEntity
  8
Defpoints
100
AcDbPoint
 10
85.0
 20
55.0
 30
0.0
  0
ENDBLK
  5
A2
330
A0
100
AcDbEntity
  8
0
100
AcDbBlockEnd
  0
ENDSEC
  0
SECTION
  2
ENTITIES
  0
LWPOLYLINE
  5
40
330
17
100
AcDbEntity
  8
PCB_OUTLINE
100
AcDbPolyline
 90
5
 70
1
 10
90.0
 20
0.0
 10
0.0
 20
0.0
 10
0.0
 20
60.0
 10
90.0
 20
60.0
 10
90.0
 20
0.0
  0
LWPOLYLINE
  5
41
330
17
100
AcDbEntity
  8
SINK_AREA
100
AcDbPolyline
 90
189
 70
1
 10
1.8383225650528647
 20
-0.2
 10
1.8144527687459764
 20
-0.36091709572983727
 10
1.7703396211045863
 20
-0.5370266529207554
 10
1.7091771351458807
 20
-0.7079643498754161
 10
1.631554339044457
 20
-0.8720839631280957
 10
1.5382187827597087
 20
-1.027804931086264
 10
1.4300693387210635
 20
-1.1736275757027441
 10
1.308147545195113
 20
-1.308147545195113
 10
1.1736275757027441
 20
-1.4300693387210632
 10
1.0278049310862643
 20
-1.5382187827597087
 10
0.872083963128096
 20
-1.6315543390444567
 10
0.7079643498754162
 20
-1.7091771351458807
 10
0.5370266529207554
 20
-1.7703396211045865
 10
0.36091709572983743
 20
-1.8144527687459764
 10
0.18133170960968745
 20
-1.8410917443435642
 10
0.0
 20
-1.85
 10
-0.1813317096096872
 20
-1.8410917443435644
 10
-0.36091709572983716
 20
-1.8144527687459764
 10
-0.537026652920755
 20
-1.7703396211045865
 10
-0.707964349875416
 20
-1.7091771351458807
 10
-0.8720839631280958
 20
-1.631554339044457
 10
-1.0278049310862636
 20
-1.538218782759709
 10
-1.173627575702744
 20
-1.4300693387210637
 10
-1.3081475451951128
 20
-1.308147545195113
 10
-1.4300693387210635
 20
-1.1736275757027441
 10
-1.538218782759709
 20
-1.027804931086264
 10
-1.6315543390444567
 20
-0.872083963128096
 10
-1.7091771351458807
 20
-0.7079643498754163
 10
-1.7703396211045863
 20
-0.5370266529207555
 10
-1.8144527687459764
 20
-0.36091709572983793
 10
-1.8410917443435642
 20
-0.18133170960968753
 10
-1.85
 20
0.0
 10
-1.8410917443435644
 20
0.1813317096096871
 10
-1.8144527687459764
 20
0.3609170957298375
 10
-1.7703396211045865
 20
0.5370266529207549
 10
-1.7091771351458807
 20
0.7079643498754159
 10
-1.631554339044457
 20
0.8720839631280957
 10
-1.5382187827597091
 20
1.0278049310862636
 10
-1.4300693387210637
 20
1.173627575702744
 10
-1.3081475451951132
 20
1.3081475451951128
 10
-1.173627575702745
 20
1.4300693387210628
 10
-1.027804931086264
 20
1.5382187827597087
 10
-0.8720839631280961
 20
1.6315543390444567
 10
-0.7079643498754171
 20
1.7091771351458802
 10
-0.5370266529207556
 20
1.7703396211045863
 10
-0.36091709572983804
 20
1.8144527687459762
 10
-0.2
 20
1.8383225650528645
 10
-0.2
 20
58.16167743494714
 10
-0.36091709572983716
 20
58.18554723125402
 10
-0.537026652920755
 20
58.22966037889541
 10
-0.707964349875416
 20
58.29082286485412
 10
-0.8720839631280958
 20
58.368445660955544
 10
-1.0278049310862636
 20
58.46178121724029
 10
-1.173627575702744
 20
58.56993066127894
 10
-1.3081475451951128
 20
58.69185245480489
 10
-1.4300693387210635
 20
58.826372424297254
 10
-1.538218782759709
 20
58.972195068913734
 10
-1.6315543390444567
 20
59.1279160368719
 10
-1.7091771351458807
 20
59.29203565012458
 10
-1.7703396211045863
 20
59.46297334707924
 10
-1.8144527687459764
 20
59.63908290427016
 10
-1.8410917443435642
 20
59.81866829039031
 10
-1.85
 20
60.0
 10
-1.8410917443435644
 20
60.18133170960969
 10
-1.8144527687459764
 20
60.36091709572984
 10
-1.7703396211045865
 20
60.53702665292076
 10
-1.7091771351458807
 20
60.70796434987542
 10
-1.631554339044457
 20
60.8720839631281
 10
-1.5382187827597091
 20
61.027804931086266
 10
-1.4300693387210637
 20
61.173627575702746
 10
-1.3081475451951132
 20
61.30814754519511
 10
-1.173627575702745
 20
61.43006933872106
 10
-1.027804931086264
 20
61.53821878275971
 10
-0.8720839631280961
 20
61.631554339044456
 10
-0.7079643498754171
 20
61.70917713514588
 10
-0.5370266529207556
 20
61.77033962110458
 10
-0.36091709572983804
 20
61.81445276874597
 10
-0.18133170960968684
 20
61.841091744343565
 10
0.0
 20
61.85
 10
0.18133170960968617
 20
61.841091744343565
 10
0.3609170957298374
 20
61.81445276874598
 10
0.5370266529207548
 20
61.77033962110459
 10
0.7079643498754166
 20
61.70917713514588
 10
0.8720839631280956
 20
61.631554339044456
 10
1.0278049310862634
 20
61.53821878275971
 10
1.1736275757027443
 20
61.43006933872106
 10
1.3081475451951126
 20
61.30814754519511
 10
1.4300693387210628
 20
61.173627575702746
 10
1.5382187827597087
 20
61.027804931086266
 10
1.6315543390444565
 20
60.8720839631281
 10
1.7091771351458802
 20
60.70796434987542
 10
1.7703396211045863
 20
60.53702665292076
 10
1.8144527687459762
 20
60.36091709572984
 10
1.8383225650528643
 20
60.2
 10
88.16167743494714
 20
60.2
 10
88.18554723125402
 20
60.36091709572984
 10
88.22966037889542
 20
60.53702665292076
 10
88.29082286485412
 20
60.70796434987542
 10
88.36844566095554
 20
60.8720839631281
 10
88.46178121724029
 20
61.027804931086266
 10
88.56993066127893
 20
61.173627575702746
 10
88.69185245480489
 20
61.30814754519511
 10
88.82637242429726
 20
61.43006933872106
 10
88.97219506891373
 20
61.53821878275971
 10
89.12791603687191
 20
61.631554339044456
 10
89.29203565012459
 20
61.70917713514588
 10
89.46297334707924
 20
61.77033962110458
 10
89.63908290427017
 20
61.81445276874597
 10
89.8186682903903
 20
61.841091744343565
 10
90.0
 20
61.85
 10
90.18133170960968
 20
61.841091744343565
 10
90.36091709572983
 20
61.81445276874598
 10
90.53702665292076
 20
61.77033962110459
 10
90.70796434987541
 20
61.70917713514588
 10
90.87208396312809
 20
61.631554339044456
 10
91.02780493108627
 20
61.53821878275971
 10
91.17362757570274
 20
61.43006933872106
 10
91.30814754519511
 20
61.30814754519511
 10
91.43006933872107
 20
61.173627575702746
 10
91.53821878275971
 20
61.027804931086266
 10
91.63155433904446
 20
60.8720839631281
 10
91.70917713514588
 20
60.70796434987542
 10
91.77033962110458
 20
60.53702665292076
 10
91.81445276874598
 20
60.36091709572984
 10
91.84109174434356
 20
60.18133170960969
 10
91.85
 20
60.0
 10
91.84109174434356
 20
59.81866829039031
 10
91.81445276874598
 20
59.63908290427016
 10
91.77033962110458
 20
59.46297334707924
 10
91.70917713514588
 20
59.29203565012458
 10
91.63155433904446
 20
59.1279160368719
 10
91.53821878275971
 20
58.972195068913734
 10
91.43006933872107
 20
58.826372424297254
 10
91.30814754519511
 20
58.69185245480489
 10
91.17362757570274
 20
58.56993066127894
 10
91.02780493108627
 20
58.46178121724029
 10
90.87208396312809
 20
58.368445660955544
 10
90.70796434987541
 20
58.29082286485412
 10
90.53702665292076
 20
58.22966037889541
 10
90.36091709572983
 20
58.18554723125402
 10
90.2
 20
58.16167743494714
 10
90.2
 20
1.8383225650528632
 10
90.36091709572983
 20
1.8144527687459764
 10
90.53702665292076
 20
1.7703396211045865
 10
90.70796434987541
 20
1.7091771351458804
 10
90.87208396312809
 20
1.631554339044457
 10
91.02780493108627
 20
1.5382187827597091
 10
91.17362757570274
 20
1.4300693387210632
 10
91.30814754519511
 20
1.3081475451951132
 10
91.43006933872107
 20
1.173627575702745
 10
91.53821878275971
 20
1.027804931086264
 10
91.63155433904446
 20
0.8720839631280962
 10
91.70917713514588
 20
0.7079643498754172
 10
91.77033962110458
 20
0.5370266529207557
 10
91.81445276874598
 20
0.36091709572983816
 10
91.84109174434356
 20
0.18133170960968695
 10
91.85
 20
0.0
 10
91.84109174434356
 20
-0.18133170960968711
 10
91.81445276874598
 20
-0.36091709572983727
 10
91.77033962110458
 20
-0.5370266529207554
 10
91.70917713514588
 20
-0.7079643498754161
 10
91.63155433904446
 20
-0.8720839631280957
 10
91.53821878275971
 20
-1.027804931086264
 10
91.43006933872107
 20
-1.1736275757027441
 10
91.30814754519511
 20
-1.308147545195113
 10
91.17362757570274
 20
-1.4300693387210632
 10
91.02780493108627
 20
-1.5382187827597087
 10
90.87208396312809
 20
-1.6315543390444567
 10
90.70796434987541
 20
-1.7091771351458807
 10
90.53702665292076
 20
-1.7703396211045865
 10
90.36091709572983
 20
-1.8144527687459764
 10
90.1813317096097
 20
-1.8410917443435642
 10
90.0
 20
-1.85
 10
89.8186682903903
 20
-1.8410917443435644
 10
89.63908290427017
 20
-1.8144527687459764
 10
89.46297334707924
 20
-1.7703396211045865
 10
89.29203565012459
 20
-1.7091771351458807
 10
89.12791603687191
 20
-1.631554339044457
 10
88.97219506891373
 20
-1.538218782759709
 10
88.82637242429726
 20
-1.4300693387210637
 10
88.69185245480489
 20
-1.308147545195113
 10
88.56993066127893
 20
-1.1736275757027441
 10
88.46178121724029
 20
-1.027804931086264
 10
88.36844566095554
 20
-0.872083963128096
 10
88.29082286485412
 20
-0.7079643498754163
 10
88.22966037889542
 20
-0.5370266529207555
 10
88.18554723125402
 20
-0.36091709572983793
 10
88.16167743494714
 20
-0.2
 10
1.8383225650528647
 20
-0.2
  0
LWPOLYLINE
  5
42
330
17
100
AcDbEntity
  8
SOLDER_WINDOW_TOP
100
AcDbPolyline
 90
69
 70
1
 10
34.5
 20
34.3
 10
12.5
 20
34.3
 10
12.480396571934088
 20
34.30096305466556
 10
12.460981935596774
 20
34.303842943919356
 10
12.441943064549108
 20
34.30861193285356
 10
12.423463313526982
 20
34.31522409349774
 10
12.4057206526348
 20
34.323615747130326
 10
12.38888595339608
 20
34.33370607753949
 10
12.373121343167272
 20
34.34539790932745
 10
12.35857864376269
 20
34.35857864376269
 10
12.345397909327453
 20
34.37312134316727
 10
12.33370607753949
 20
34.38888595339608
 10
12.32361574713033
 20
34.4057206526348
 10
12.315224093497743
 20
34.42346331352698
 10
12.308611932853559
 20
34.44194306454911
 10
12.303842943919355
 20
34.46098193559678
 10
12.30096305466556
 20
34.48039657193409
 10
12.3
 20
34.5
 10
12.3
 20
41.5
 10
12.30096305466556
 20
41.51960342806591
 10
12.303842943919355
 20
41.53901806440322
 10
12.308611932853559
 20
41.55805693545089
 10
12.315224093497743
 20
41.57653668647302
 10
12.32361574713033
 20
41.5942793473652
 10
12.33370607753949
 20
41.61111404660392
 10
12.345397909327453
 20
41.62687865683273
 10
12.35857864376269
 20
41.64142135623731
 10
12.373121343167272
 20
41.65460209067255
 10
12.38888595339608
 20
41.66629392246051
 10
12.4057206526348
 20
41.676384252869674
 10
12.423463313526982
 20
41.68477590650226
 10
12.441943064549108
 20
41.69138806714644
 10
12.460981935596774
 20
41.696157056080644
 10
12.480396571934088
 20
41.69903694533444
 10
12.5
 20
41.7
 10
34.5
 20
41.7
 10
34.51960342806591
 20
41.69903694533444
 10
34.53901806440322
 20
41.696157056080644
 10
34.55805693545089
 20
41.69138806714644
 10
34.57653668647302
 20
41.68477590650226
 10
34.5942793473652
 20
41.676384252869674
 10
34.61111404660392
 20
41.66629392246051
 10
34.62687865683273
 20
41.65460209067255
 10
34.64142135623731
 20
41.64142135623731
 10
34.65460209067255
 20
41.62687865683273
 10
34.66629392246051
 20
41.61111404660392
 10
34.676384252869674
 20
41.5942793473652
 10
34.68477590650226
 20
41.57653668647302
 10
34.69138806714644
 20
41.55805693545089
 10
34.696157056080644
 20
41.53901806440322
 10
34.69903694533444
 20
41.51960342806591
 10
34.7
 20
41.5
 10
34.7
 20
34.5
 10
34.69903694533444
 20
34.48039657193409
 10
34.696157056080644
 20
34.46098193559678
 10
34.69138806714644
 20
34.44194306454911
 10
34.68477590650226
 20
34.42346331352698
 10
34.676384252869674
 20
34.4057206526348
 10
34.66629392246051
 20
34.38888595339608
 10
34.65460209067255
 20
34.37312134316727
 10
34.64142135623731
 20
34.35857864376269
 10
34.62687865683273
 20
34.34539790932745
 10
34.61111404660392
 20
34.33370607753949
 10
34.5942793473652
 20
34.323615747130326
 10
34.57653668647302
 20
34.31522409349774
 10
34.55805693545089
 20
34.30861193285356
 10
34.53901806440322
 20
34.303842943919356
 10
34.51960342806591
 20
34.30096305466556
 10
34.5
 20
34.3
  0
LWPOLYLINE
  5
43
330
17
100
AcDbEntity
  8
SOLDER_WINDOW_TOP
100
AcDbPolyline
 90
65
 70
1
 10
57.6
 20
38.0
 10
57.58266501601991
 20
37.64713829481358
 10
57.53082700945163
 20
37.29767484074194
 10
57.444985208635956
 20
36.95497516188394
 10
57.32596631704063
 20
36.622339643485674
 10
57.17491655165408
 20
36.30297174742641
 10
56.993290604289164
 20
35.999947161129434
 10
56.78283763210585
 20
35.716184177010874
 10
56.54558441227157
 20
35.45441558772843
 10
56.283815822989126
 20
35.21716236789415
 10
56.000052838870566
 20
35.006709395710836
 10
55.697028252573595
 20
34.82508344834592
 10
55.377660356514326
 20
34.67403368295937
 10
55.04502483811606
 20
34.555014791364044
 10
54.70232515925806
 20
34.46917299054837
 10
54.35286170518642
 20
34.41733498398009
 10
54.0
 20
34.4
 10
53.64713829481358
 20
34.41733498398009
 10
53.29767484074194
 20
34.46917299054837
 10
52.95497516188394
 20
34.555014791364044
 10
52.622339643485674
 20
34.67403368295937
 10
52.30297174742641
 20
34.82508344834592
 10
51.999947161129434
 20
35.006709395710836
 10
51.716184177010874
 20
35.21716236789415
 10
51.45441558772843
 20
35.45441558772843
 10
51.21716236789415
 20
35.716184177010874
 10
51.006709395710836
 20
35.999947161129434
 10
50.82508344834592
 20
36.302971747426405
 10
50.67403368295937
 20
36.622339643485674
 10
50.555014791364044
 20
36.95497516188394
 10
50.46917299054837
 20
37.297674840741934
 10
50.41733498398009
 20
37.64713829481358
 10
50.4
 20
38.0
 10
50.41733498398009
 20
38.35286170518642
 10
50.46917299054837
 20
38.70232515925806
 10
50.555014791364044
 20
39.04502483811606
 10
50.67403368295937
 20
39.377660356514326
 10
50.82508344834592
 20
39.69702825257359
 10
51.006709395710836
 20
40.000052838870566
 10
51.21716236789415
 20
40.283815822989126
 10
51.45441558772843
 20
40.54558441227157
 10
51.716184177010874
 20
40.78283763210585
 10
51.999947161129434
 20
40.993290604289164
 10
52.302971747426405
 20
41.17491655165408
 10
52.622339643485674
 20
41.32596631704063
 10
52.95497516188394
 20
41.444985208635956
 10
53.297674840741934
 20
41.53082700945163
 10
53.64713829481358
 20
41.58266501601991
 10
54.0
 20
41.6
 10
54.35286170518641
 20
41.58266501601991
 10
54.70232515925806
 20
41.53082700945163
 10
55.04502483811606
 20
41.444985208635956
 10
55.377660356514326
 20
41.32596631704063
 10
55.69702825257359
 20
41.17491655165408
 10
56.000052838870566
 20
40.993290604289164
 10
56.283815822989126
 20
40.78283763210585
 10
56.54558441227157
 20
40.54558441227157
 10
56.78283763210585
 20
40.283815822989126
 10
56.993290604289164
 20
40.000052838870566
 10
57.17491655165408
 20
39.697028252573595
 10
57.32596631704063
 20
39.377660356514326
 10
57.444985208635956
 20
39.04502483811606
 10
57.53082700945163
 20
38.702325159258066
 10
57.58266501601991
 20
38.35286170518642
 10
57.6
 20
38.0
  0
LWPOLYLINE
  5
44
330
17
100
AcDbEntity
  8
SOLDER_WINDOW_TOP
100
AcDbPolyline
 90
65
 70
1
 10
63.6
 20
38.0
 10
63.58266501601991
 20
37.64713829481358
 10
63.53082700945163
 20
37.29767484074194
 10
63.444985208635956
 20
36.95497516188394
 10
63.32596631704063
 20
36.622339643485674
 10
63.17491655165408
 20
36.30297174742641
 10
62.993290604289164
 20
35.999947161129434
 10
62.78283763210585
 20
35.716184177010874
 10
62.54558441227157
 20
35.45441558772843
 10
62.283815822989126
 20
35.21716236789415
 10
62.000052838870566
 20
35.006709395710836
 10
61.697028252573595
 20
34.82508344834592
 10
61.377660356514326
 20
34.67403368295937
 10
61.04502483811606
 20
34.555014791364044
 10
60.70232515925806
 20
34.46917299054837
 10
60.35286170518642
 20
34.41733498398009
 10
60.0
 20
34.4
 10
59.64713829481358
 20
34.41733498398009
 10
59.29767484074194
 20
34.46917299054837
 10
58.95497516188394
 20
34.555014791364044
 10
58.622339643485674
 20
34.67403368295937
 10
58.30297174742641
 20
34.82508344834592
 10
57.999947161129434
 20
35.006709395710836
 10
57.716184177010874
 20
35.21716236789415
 10
57.45441558772843
 20
35.45441558772843
 10
57.21716236789415
 20
35.716184177010874
 10
57.006709395710836
 20
35.999947161129434
 10
56.82508344834592
 20
36.302971747426405
 10
56.67403368295937
 20
36.622339643485674
 10
56.555014791364044
 20
36.95497516188394
 10
56.46917299054837
 20
37.297674840741934
 10
56.41733498398009
 20
37.64713829481358
 10
56.4
 20
38.0
 10
56.41733498398009
 20
38.35286170518642
 10
56.46917299054837
 20
38.70232515925806
 10
56.555014791364044
 20
39.04502483811606
 10
56.67403368295937
 20
39.377660356514326
 10
56.82508344834592
 20
39.69702825257359
 10
57.006709395710836
 20
40.000052838870566
 10
57.21716236789415
 20
40.283815822989126
 10
57.45441558772843
 20
40.54558441227157
 10
57.716184177010874
 20
40.78283763210585
 10
57.999947161129434
 20
40.993290604289164
 10
58.302971747426405
 20
41.17491655165408
 10
58.622339643485674
 20
41.32596631704063
 10
58.95497516188394
 20
41.444985208635956
 10
59.297674840741934
 20
41.53082700945163
 10
59.64713829481358
 20
41.58266501601991
 10
60.0
 20
41.6
 10
60.35286170518641
 20
41.58266501601991
 10
60.70232515925806
 20
41.53082700945163
 10
61.04502483811606
 20
41.444985208635956
 10
61.377660356514326
 20
41.32596631704063
 10
61.69702825257359
 20
41.17491655165408
 10
62.000052838870566
 20
40.993290604289164
 10
62.283815822989126
 20
40.78283763210585
 10
62.54558441227157
 20
40.54558441227157
 10
62.78283763210585
 20
40.283815822989126
 10
62.993290604289164
 20
40.000052838870566
 10
63.17491655165408
 20
39.697028252573595
 10
63.32596631704063
 20
39.377660356514326
 10
63.444985208635956
 20
39.04502483811606
 10
63.53082700945163
 20
38.702325159258066
 10
63.58266501601991
 20
38.35286170518642
 10
63.6
 20
38.0
  0
LWPOLYLINE
  5
45
330
17
100
AcDbEntity
  8
SOLDER_WINDOW_TOP
100
AcDbPolyline
 90
65
 70
1
 10
69.6
 20
38.0
 10
69.5826650160199
 20
37.64713829481358
 10
69.53082700945163
 20
37.29767484074194
 10
69.44498520863596
 20
36.95497516188394
 10
69.32596631704064
 20
36.622339643485674
 10
69.17491655165408
 20
36.30297174742641
 10
68.99329060428916
 20
35.999947161129434
 10
68.78283763210585
 20
35.716184177010874
 10
68.54558441227157
 20
35.45441558772843
 10
68.28381582298913
 20
35.21716236789415
 10
68.00005283887057
 20
35.006709395710836
 10
67.69702825257359
 20
34.82508344834592
 10
67.37766035651433
 20
34.67403368295937
 10
67.04502483811606
 20
34.555014791364044
 10
66.70232515925807
 20
34.46917299054837
 10
66.35286170518641
 20
34.41733498398009
 10
66.0
 20
34.4
 10
65.64713829481359
 20
34.41733498398009
 10
65.29767484074193
 20
34.46917299054837
 10
64.95497516188394
 20
34.555014791364044
 10
64.62233964348567
 20
34.67403368295937
 10
64.30297174742641
 20
34.82508344834592
 10
63.999947161129434
 20
35.006709395710836
 10
63.716184177010874
 20
35.21716236789415
 10
63.45441558772843
 20
35.45441558772843
 10
63.21716236789415
 20
35.716184177010874
 10
63.006709395710836
 20
35.999947161129434
 10
62.82508344834592
 20
36.302971747426405
 10
62.67403368295937
 20
36.622339643485674
 10
62.555014791364044
 20
36.95497516188394
 10
62.46917299054837
 20
37.297674840741934
 10
62.41733498398009
 20
37.64713829481358
 10
62.4
 20
38.0
 10
62.41733498398009
 20
38.35286170518642
 10
62.46917299054837
 20
38.70232515925806
 10
62.555014791364044
 20
39.04502483811606
 10
62.67403368295937
 20
39.377660356514326
 10
62.82508344834592
 20
39.69702825257359
 10
63.006709395710836
 20
40.000052838870566
 10
63.21716236789415
 20
40.283815822989126
 10
63.45441558772843
 20
40.54558441227157
 10
63.716184177010874
 20
40.78283763210585
 10
63.999947161129434
 20
40.993290604289164
 10
64.30297174742641
 20
41.17491655165408
 10
64.62233964348567
 20
41.32596631704063
 10
64.95497516188394
 20
41.444985208635956
 10
65.29767484074193
 20
41.53082700945163
 10
65.64713829481359
 20
41.58266501601991
 10
66.0
 20
41.6
 10
66.35286170518641
 20
41.58266501601991
 10
66.70232515925807
 20
41.53082700945163
 10
67.04502483811606
 20
41.444985208635956
 10
67.37766035651433
 20
41.32596631704063
 10
67.69702825257359
 20
41.17491655165408
 10
68.00005283887057
 20
40.993290604289164
 10
68.28381582298913
 20
40.78283763210585
 10
68.54558441227157
 20
40.54558441227157
 10
68.78283763210585
 20
40.283815822989126
 10
68.99329060428916
 20
40.000052838870566
 10
69.17491655165408
 20
39.697028252573595
 10
69.32596631704064
 20
39.377660356514326
 10
69.44498520863596
 20
39.04502483811606
 10
69.53082700945163
 20
38.702325159258066
 10
69.5826650160199
 20
38.35286170518642
 10
69.6
 20
38.0
  0
LWPOLYLINE
  5
46
330
17
100
AcDbEntity
  8
SOLDER_WINDOW_TOP
100
AcDbPolyline
 90
65
 70
1
 10
75.6
 20
38.0
 10
75.5826650160199
 20
37.64713829481358
 10
75.53082700945163
 20
37.29767484074194
 10
75.44498520863596
 20
36.95497516188394
 10
75.32596631704064
 20
36.622339643485674
 10
75.17491655165408
 20
36.30297174742641
 10
74.99329060428916
 20
35.999947161129434
 10
74.78283763210585
 20
35.716184177010874
 10
74.54558441227157
 20
35.45441558772843
 10
74.28381582298913
 20
35.21716236789415
 10
74.00005283887057
 20
35.006709395710836
 10
73.69702825257359
 20
34.82508344834592
 10
73.37766035651433
 20
34.67403368295937
 10
73.04502483811606
 20
34.555014791364044
 10
72.70232515925807
 20
34.46917299054837
 10
72.35286170518641
 20
34.41733498398009
 10
72.0
 20
34.4
 10
71.64713829481359
 20
34.41733498398009
 10
71.29767484074193
 20
34.46917299054837
 10
70.95497516188394
 20
34.555014791364044
 10
70.62233964348567
 20
34.67403368295937
 10
70.30297174742641
 20
34.82508344834592
 10
69.99994716112943
 20
35.006709395710836
 10
69.71618417701087
 20
35.21716236789415
 10
69.45441558772843
 20
35.45441558772843
 10
69.21716236789415
 20
35.716184177010874
 10
69.00670939571084
 20
35.999947161129434
 10
68.82508344834592
 20
36.302971747426405
 10
68.67403368295936
 20
36.622339643485674
 10
68.55501479136404
 20
36.95497516188394
 10
68.46917299054837
 20
37.297674840741934
 10
68.4173349839801
 20
37.64713829481358
 10
68.4
 20
38.0
 10
68.4173349839801
 20
38.35286170518642
 10
68.46917299054837
 20
38.70232515925806
 10
68.55501479136404
 20
39.04502483811606
 10
68.67403368295936
 20
39.377660356514326
 10
68.82508344834592
 20
39.69702825257359
 10
69.00670939571084
 20
40.000052838870566
 10
69.21716236789415
 20
40.283815822989126
 10
69.45441558772843
 20
40.54558441227157
 10
69.71618417701087
 20
40.78283763210585
 10
69.99994716112943
 20
40.993290604289164
 10
70.30297174742641
 20
41.17491655165408
 10
70.62233964348567
 20
41.32596631704063
 10
70.95497516188394
 20
41.444985208635956
 10
71.29767484074193
 20
41.53082700945163
 10
71.64713829481359
 20
41.58266501601991
 10
72.0
 20
41.6
 10
72.35286170518641
 20
41.58266501601991
 10
72.70232515925807
 20
41.53082700945163
 10
73.04502483811606
 20
41.444985208635956
 10
73.37766035651433
 20
41.32596631704063
 10
73.69702825257359
 20
41.17491655165408
 10
74.00005283887057
 20
40.993290604289164
 10
74.28381582298913
 20
40.78283763210585
 10
74.54558441227157
 20
40.54558441227157
 10
74.78283763210585
 20
40.283815822989126
 10
74.99329060428916
 20
40.000052838870566
 10
75.17491655165408
 20
39.697028252573595
 10
75.32596631704064
 20
39.377660356514326
 10
75.44498520863596
 20
39.04502483811606
 10
75.53082700945163
 20
38.702325159258066
 10
75.5826650160199
 20
38.35286170518642
 10
75.6
 20
38.0
  0
CIRCLE
  5
47
330
17
100
AcDbEntity
  8
POSITIONING_PINS
100
AcDbCircle
 10
5.0
 20
5.0
 30
0.0
 40
1.45
  0
CIRCLE
  5
48
330
17
100
AcDbEntity
  8
POSITIONING_PINS
100
AcDbCircle
 10
85.0
 20
55.0
 30
0.0
 40
1.45
  0
CIRCLE
  5
49
330
17
100
AcDbEntity
  8
CLIPS
100
AcDbCircle
 10
8.15
 20
71.85
 30
0.0
 40
1.7
  0
CIRCLE
  5
4A
330
17
100
AcDbEntity
  8
CLIPS
100
AcDbCircle
 10
81.85
 20
71.85
 30
0.0
 40
1.7
  0
CIRCLE
  5
4B
330
17
100
AcDbEntity
  8
CLIPS
100
AcDbCircle
 10
8.15
 20
-11.85
 30
0.0
 40
1.7
  0
CIRCLE
  5
4C
330
17
100
AcDbEntity
  8
CLIPS
100
AcDbCircle
 10
81.85
 20
-11.85
 30
0.0
 40
1.7
  0
LWPOLYLINE
  5
4D
330
17
100
AcDbEntity
  8
FIXTURE_OUTLINE
100
AcDbPolyline
 90
69
 70
1
 10
115.0
 20
-30.0
 10
114.97592363336099
 20
-30.490085701647804
 10
114.90392640201615
 20
-30.97545161008064
 10
114.78470167866104
 20
-31.45142338627231
 10
114.61939766255644
 20
-31.91341716182545
 10
114.40960632174178
 20
-32.356983684129986
 10
114.15734806151272
 20
-32.777851165098014
 10
113.86505226681369
 20
-33.17196642081823
 10
113.53553390593274
 20
-33.53553390593274
 10
113.17196642081822
 20
-33.865052266813684
 10
112.77785116509801
 20
-34.15734806151273
 10
112.35698368412999
 20
-34.40960632174178
 10
111.91341716182545
 20
-34.61939766255644
 10
111.45142338627231
 20
-34.784701678661044
 10
110.97545161008064
 20
-34.903926402016154
 10
110.4900857016478
 20
-34.975923633360985
 10
110.0
 20
-35.0
 10
-20.0
 20
-35.0
 10
-20.490085701647804
 20
-34.975923633360985
 10
-20.975451610080643
 20
-34.903926402016154
 10
-21.451423386272314
 20
-34.784701678661044
 10
-21.91341716182545
 20
-34.61939766255643
 10
-22.35698368412999
 20
-34.40960632174178
 10
-22.77785116509801
 20
-34.15734806151273
 10
-23.17196642081823
 20
-33.865052266813684
 10
-23.535533905932738
 20
-33.53553390593274
 10
-23.865052266813684
 20
-33.17196642081823
 10
-24.157348061512728
 20
-32.777851165098014
 10
-24.409606321741776
 20
-32.356983684129986
 10
-24.619397662556434
 20
-31.91341716182545
 10
-24.784701678661044
 20
-31.45142338627231
 10
-24.903926402016154
 20
-30.975451610080643
 10
-24.975923633360985
 20
-30.490085701647804
 10
-25.0
 20
-30.0
 10
-25.0
 20
90.0
 10
-24.975923633360985
 20
90.4900857016478
 10
-24.903926402016154
 20
90.97545161008064
 10
-24.784701678661044
 20
91.45142338627231
 10
-24.619397662556434
 20
91.91341716182545
 10
-24.409606321741776
 20
92.35698368412999
 10
-24.157348061512728
 20
92.77785116509801
 10
-23.865052266813684
 20
93.17196642081822
 10
-23.535533905932738
 20
93.53553390593274
 10
-23.171966420818226
 20
93.86505226681369
 10
-22.77785116509801
 20
94.15734806151272
 10
-22.35698368412999
 20
94.40960632174178
 10
-21.91341716182545
 20
94.61939766255644
 10
-21.45142338627231
 20
94.78470167866105
 10
-20.97545161008064
 20
94.90392640201615
 10
-20.490085701647804
 20
94.97592363336099
 10
-20.0
 20
95.0
 10
110.0
 20
95.0
 10
110.4900857016478
 20
94.97592363336098
 10
110.97545161008064
 20
94.90392640201615
 10
111.45142338627231
 20
94.78470167866105
 10
111.91341716182545
 20
94.61939766255644
 10
112.35698368412999
 20
94.40960632174178
 10
112.77785116509801
 20
94.15734806151272
 10
113.17196642081822
 20
93.86505226681368
 10
113.53553390593274
 20
93.53553390593274
 10
113.86505226681369
 20
93.17196642081822
 10
114.15734806151272
 20
92.77785116509801
 10
114.40960632174178
 20
92.35698368412999
 10
114.61939766255644
 20
91.91341716182545
 10
114.78470167866105
 20
91.45142338627231
 10
114.90392640201615
 20
90.97545161008064
 10
114.97592363336099
 20
90.4900857016478
 10
115.0
 20
90.0
 10
115.0
 20
-30.0
  0
LWPOLYLINE
  5
4E
330
17
100
AcDbEntity
  8
HANDHOLDS
100
AcDbPolyline
 90
69
 70
1
 10
-0.8500000000000001
 20
12.0
 10
-0.8596305466556062
 20
11.803965719340878
 10
-0.8884294391935392
 20
11.609819355967744
 10
-0.9361193285355824
 20
11.419430645491076
 10
-1.0022409349774266
 20
11.23463313526982
 10
-1.08615747130329
 20
11.057206526348004
 10
-1.1870607753949096
 20
10.888859533960796
 10
-1.303979093274526
 20
10.731213431672709
 10
-1.435786437626905
 20
10.585786437626904
 10
-1.5812134316727091
 20
10.453979093274526
 10
-1.7388595339607955
 20
10.33706077539491
 10
-1.9072065263480045
 20
10.23615747130329
 10
-2.0846331352698204
 20
10.152240934977426
 10
-2.2694306454910755
 20
10.086119328535583
 10
-2.4598193559677433
 20
10.03842943919354
 10
-2.6539657193408788
 20
10.009630546655606
 10
-2.85
 20
10.0
 10
-18.85
 20
10.0
 10
-19.04603428065912
 20
10.009630546655606
 10
-19.240180644032257
 20
10.03842943919354
 10
-19.430569354508926
 20
10.086119328535583
 10
-19.61536686473018
 20
10.152240934977428
 10
-19.792793473651997
 20
10.23615747130329
 10
-19.961140466039204
 20
10.33706077539491
 10
-20.118786568327295
 20
10.453979093274526
 10
-20.264213562373097
 20
10.585786437626904
 10
-20.396020906725475
 20
10.73121343167271
 10
-20.51293922460509
 20
10.888859533960796
 10
-20.61384252869671
 20
11.057206526348004
 10
-20.697759065022574
 20
11.23463313526982
 10
-20.76388067146442
 20
11.419430645491076
 10
-20.811570560806462
 20
11.609819355967744
 10
-20.840369453344394
 20
11.803965719340878
 10
-20.85
 20
12.0
 10
-20.85
 20
48.0
 10
-20.840369453344394
 20
48.19603428065912
 10
-20.811570560806462
 20
48.390180644032256
 10
-20.76388067146442
 20
48.580569354508924
 10
-20.697759065022574
 20
48.76536686473018
 10
-20.61384252869671
 20
48.942793473651996
 10
-20.51293922460509
 20
49.1111404660392
 10
-20.396020906725475
 20
49.26878656832729
 10
-20.264213562373097
 20
49.41421356237309
 10
-20.11878656832729
 20
49.546020906725474
 10
-19.961140466039204
 20
49.66293922460509
 10
-19.792793473651997
 20
49.76384252869671
 10
-19.61536686473018
 20
49.84775906502257
 10
-19.430569354508926
 20
49.91388067146442
 10
-19.240180644032257
 20
49.961570560806464
 10
-19.04603428065912
 20
49.99036945334439
 10
-18.85
 20
50.0
 10
-2.85
 20
50.0
 10
-2.6539657193408788
 20
49.99036945334439
 10
-2.4598193559677433
 20
49.961570560806464
 10
-2.2694306454910755
 20
49.91388067146442
 10
-2.0846331352698204
 20
49.84775906502257
 10
-1.9072065263480045
 20
49.76384252869671
 10
-1.7388595339607955
 20
49.66293922460509
 10
-1.5812134316727091
 20
49.546020906725474
 10
-1.435786437626905
 20
49.41421356237309
 10
-1.303979093274526
 20
49.26878656832729
 10
-1.1870607753949096
 20
49.1111404660392
 10
-1.0861574713032902
 20
48.942793473651996
 10
-1.0022409349774266
 20
48.76536686473018
 10
-0.9361193285355822
 20
48.580569354508924
 10
-0.8884294391935392
 20
48.390180644032256
 10
-0.8596305466556062
 20
48.19603428065912
 10
-0.8500000000000001
 20
48.0
 10
-0.8500000000000001
 20
12.0
  0
LWPOLYLINE
  5
4F
330
17
100
AcDbEntity
  8
HANDHOLDS
100
AcDbPolyline
 90
69
 70
1
 10
110.85
 20
12.0
 10
110.8403694533444
 20
11.803965719340878
 10
110.81157056080646
 20
11.609819355967744
 10
110.7638806714644
 20
11.419430645491076
 10
110.69775906502257
 20
11.23463313526982
 10
110.61384252869671
 20
11.057206526348004
 10
110.51293922460509
 20
10.888859533960796
 10
110.39602090672547
 20
10.731213431672709
 10
110.26421356237309
 20
10.585786437626904
 10
110.11878656832728
 20
10.453979093274526
 10
109.9611404660392
 20
10.33706077539491
 10
109.79279347365198
 20
10.23615747130329
 10
109.61536686473018
 20
10.152240934977426
 10
109.43056935450892
 20
10.086119328535583
 10
109.24018064403225
 20
10.03842943919354
 10
109.04603428065911
 20
10.009630546655606
 10
108.85
 20
10.0
 10
92.85
 20
10.0
 10
92.65396571934087
 20
10.009630546655606
 10
92.45981935596774
 20
10.03842943919354
 10
92.26943064549107
 20
10.086119328535583
 10
92.08463313526981
 20
10.152240934977428
 10
91.907206526348
 20
10.23615747130329
 10
91.73885953396079
 20
10.33706077539491
 10
91.58121343167271
 20
10.453979093274526
 10
91.4357864376269
 20
10.585786437626904
 10
91.30397909327452
 20
10.73121343167271
 10
91.1870607753949
 20
10.888859533960796
 10
91.08615747130328
 20
11.057206526348004
 10
91.00224093497742
 20
11.23463313526982
 10
90.93611932853558
 20
11.419430645491076
 10
90.88842943919353
 20
11.609819355967744
 10
90.8596305466556
 20
11.803965719340878
 10
90.85
 20
12.0
 10
90.85
 20
48.0
 10
90.8596305466556
 20
48.19603428065912
 10
90.88842943919353
 20
48.390180644032256
 10
90.93611932853558
 20
48.580569354508924
 10
91.00224093497742
 20
48.76536686473018
 10
91.08615747130328
 20
48.942793473651996
 10
91.1870607753949
 20
49.1111404660392
 10
91.30397909327452
 20
49.26878656832729
 10
91.4357864376269
 20
49.41421356237309
 10
91.58121343167271
 20
49.546020906725474
 10
91.73885953396079
 20
49.66293922460509
 10
91.907206526348
 20
49.76384252869671
 10
92.08463313526981
 20
49.84775906502257
 10
92.26943064549107
 20
49.91388067146442
 10
92.45981935596774
 20
49.961570560806464
 10
92.65396571934087
 20
49.99036945334439
 10
92.85
 20
50.0
 10
108.85
 20
50.0
 10
109.04603428065911
 20
49.99036945334439
 10
109.24018064403225
 20
49.961570560806464
 10
109.43056935450892
 20
49.91388067146442
 10
109.61536686473018
 20
49.84775906502257
 10
109.79279347365198
 20
49.76384252869671
 10
109.9611404660392
 20
49.66293922460509
 10
110.11878656832728
 20
49.546020906725474
 10
110.26421356237309
 20
49.41421356237309
 10
110.39602090672547
 20
49.26878656832729
 10
110.51293922460509
 20
49.1111404660392
 10
110.61384252869671
 20
48.942793473651996
 10
110.69775906502257
 20
48.76536686473018
 10
110.7638806714644
 20
48.580569354508924
 10
110.81157056080646
 20
48.390180644032256
 10
110.8403694533444
 20
48.19603428065912
 10
110.85
 20
48.0
 10
110.85
 20
12.0
  0
LWPOLYLINE
  5
50
330
17
100
AcDbEntity
  8
RAILS
100
AcDbPolyline
 90
5
 70
1
 10
115.0
 20
90.0
 10
115.0
 20
95.0
 10
-25.0
 20
95.0
 10
-25.0
 20
90.0
 10
115.0
 20
90.0
  0
LWPOLYLINE
  5
51
330
17
100
AcDbEntity
  8
RAILS
100
AcDbPolyline
 90
5
 70
1
 10
115.0
 20
-35.0
 10
115.0
 20
-30.0
 10
-25.0
 20
-30.0
 10
-25.0
 20
-35.0
 10
115.0
 20
-35.0
  0
LWPOLYLINE
  5
52
330
17
100
AcDbEntity
  8
SOLDER_BARRIERS
100
AcDbPolyline
 90
5
 70
1
 10
-15.0
 20
-30.0
 10
-15.0
 20
90.0
 10
-25.0
 20
90.0
 10
-25.0
 20
-30.0
 10
-15.0
 20
-30.0
  0
LWPOLYLINE
  5
53
330
17
100
AcDbEntity
  8
SOLDER_BARRIERS
100
AcDbPolyline
 90
5
 70
1
 10
115.0
 20
-30.0
 10
115.0
 20
90.0
 10
105.0
 20
90.0
 10
105.0
 20
-30.0
 10
115.0
 20
-30.0
  0
CIRCLE
  5
54
330
17
100
AcDbEntity
  8
BARRIER_MOUNT_HOLES
100
AcDbCircle
 10
-20.0
 20
-15.0
 30
0.0
 40
1.6
  0
CIRCLE
  5
55
330
17
100
AcDbEntity
  8
BARRIER_MOUNT_HOLES
100
AcDbCircle
 10
110.0
 20
-15.0
 30
0.0
 40
1.6
  0
CIRCLE
  5
56
330
17
100
AcDbEntity
  8
BARRIER_MOUNT_HOLES
100
AcDbCircle
 10
-20.0
 20
30.0
 30
0.0
 40
1.6
  0
CIRCLE
  5
57
330
17
100
AcDbEntity
  8
BARRIER_MOUNT_HOLES
100
AcDbCircle
 10
110.0
 20
30.0
 30
0.0
 40
1.6
  0
CIRCLE
  5
58
330
17
100
AcDbEntity
  8
BARRIER_MOUNT_HOLES
100
AcDbCircle
 10
-20.0
 20
75.0
 30
0.0
 40
1.6
  0
CIRCLE
  5
59
330
17
100
AcDbEntity
  8
BARRIER_MOUNT_HOLES
100
AcDbCircle
 10
110.0
 20
75.0
 30
0.0
 40
1.6
  0
DIMENSION
  5
5B
330
17
100
AcDbEntity
  8
0
100
AcDbDimension
280
0
  2
*D1
  3
FIXTURE_DIM
 10
-25.0
 20
-43.0
 30
0.0
 11
45.0
 21
-43.0
 31
0.0
 70
32
 71
5
  1
<>
100
AcDbAlignedDimension
 13
-25.0
 23
-35.0
 33
0.0
 14
115.0
 24
-35.0
 34
0.0
 50
0.0
100
AcDbRotatedDimension
  0
DIMENSION
  5
6F
330
17
100
AcDbEntity
  8
0
100
AcDbDimension
280
0
  2
*D2
  3
FIXTURE_DIM
 10
123.0
 20
-35.0
 30
0.0
 11
123.0
 21
30.0
 31
0.0
 70
32
 71
5
  1
<>
100
AcDbAlignedDimension
 13
115.0
 23
-35.0
 33
0.0
 14
115.0
 24
95.0
 34
0.0
 50
90.0
100
AcDbRotatedDimension
  0
DIMENSION
  5
7F
330
17
100
AcDbEntity
  8
0
100
AcDbDimension
280
0
  2
*D3
  3
FIXTURE_DIM
 10
0.0
 20
65.0
 30
0.0
 11
45.0
 21
65.0
 31
0.0
 70
32
 71
5
  1
<>
100
AcDbAlignedDimension
 13
0.0
 23
60.0
 33
0.0
 14
90.0
 24
60.0
 34
0.0
 50
0.0
100
AcDbRotatedDimension
  0
DIMENSION
  5
8F
330
17
100
AcDbEntity
  8
0
100
AcDbDimension
280
0
  2
*D4
  3
FIXTURE_DIM
 10
-5.0
 20
0.0
 30
0.0
 11
-5.0
 21
30.0
 31
0.0
 70
32
 71
5
  1
<>
100
AcDbAlignedDimension
 13
0.0
 23
0.0
 33
0.0
 14
0.0
 24
60.0
 34
0.0
 50
90.0
100
AcDbRotatedDimension
  0
DIMENSION
  5
9F
330
17
100
AcDbEntity
  8
0
100
AcDbDimension
280
0
  2
*D5
  3
FIXTURE_DIM
 10
5.0
 20
-1.0
 30
0.0
 11
45.0
 21
-1.0
 31
0.0
 70
32
 71
5
  1
<>
100
AcDbAlignedDimension
 13
5.0
 23
5.0
 33
0.0
 14
85.0
 24
55.0
 34
0.0
 50
0.0
100
AcDbRotatedDimension
  0
CIRCLE
  5
AF
330
17
100
AcDbEntity
  8
PCB_DRILL
100
AcDbCircle
 10
16.0
 20
38.0
 30
0.0
 40
0.5
  0
CIRCLE
  5
B0
330
17
100
AcDbEntity
  8
PCB_DRILL
100
AcDbCircle
 10
21.0
 20
38.0
 30
0.0
 40
0.5
  0
CIRCLE
  5
B1
330
17
100
AcDbEntity
  8
PCB_DRILL
100
AcDbCircle
 10
26.0
 20
38.0
 30
0.0
 40
0.5
  0
CIRCLE
  5
B2
330
17
100
AcDbEntity
  8
PCB_DRILL
100
AcDbCircle
 10
31.0
 20
38.0
 30
0.0
 40
0.5
  0
CIRCLE
  5
B3
330
17
100
AcDbEntity
  8
PCB_DRILL
100
AcDbCircle
 10
54.0
 20
38.0
 30
0.0
 40
0.6
  0
CIRCLE
  5
B4
330
17
100
AcDbEntity
  8
PCB_DRILL
100
AcDbCircle
 10
60.0
 20
38.0
 30
0.0
 40
0.6
  0
CIRCLE
  5
B5
330
17
100
AcDbEntity
  8
PCB_DRILL
100
AcDbCircle
 10
66.0
 20
38.0
 30
0.0
 40
0.6
  0
CIRCLE
  5
B6
330
17
100
AcDbEntity
  8
PCB_DRILL
100
AcDbCircle
 10
72.0
 20
38.0
 30
0.0
 40
0.6
  0
CIRCLE
  5
B7
330
17
100
AcDbEntity
  8
PCB_DRILL
100
AcDbCircle
 10
5.0
 20
5.0
 30
0.0
 40
1.5
  0
CIRCLE
  5
B8
330
17
100
AcDbEntity
  8
PCB_DRILL
100
AcDbCircle
 10
85.0
 20
5.0
 30
0.0
 40
1.5
  0
CIRCLE
  5
B9
330
17
100
AcDbEntity
  8
PCB_DRILL
100
AcDbCircle
 10
5.0
 20
55.0
 30
0.0
 40
1.5
  0
CIRCLE
  5
BA
330
17
100
AcDbEntity
  8
PCB_DRILL
100
AcDbCircle
 10
85.0
 20
55.0
 30
0.0
 40
1.5
  0
ENDSEC
  0
SECTION
  2
OBJECTS
  0
DICTIONARY
  5
A
330
0
100
AcDbDictionary
281
1
  3
ACAD_COLOR
350
B
  3
ACAD_GROUP
350
C
  3
ACAD_LAYOUT
350
D
  3
ACAD_MATERIAL
350
E
  3
ACAD_MLEADERSTYLE
350
F
  3
ACAD_MLINESTYLE
350
10
  3
ACAD_PLOTSETTINGS
350
11
  3
ACAD_PLOTSTYLENAME
350
12
  3
ACAD_SCALELIST
350
14
  3
ACAD_TABLESTYLE
350
15
  3
ACAD_VISUALSTYLE
350
16
  3
EZDXF_META
350
2D
  0
DICTIONARY
  5
B
330
A
100
AcDbDictionary
281
1
  0
DICTIONARY
  5
C
330
A
100
AcDbDictionary
281
1
  0
DICTIONARY
  5
D
330
A
100
AcDbDictionary
281
1
  3
Model
350
1A
  3
Layout1
350
1E
  0
DICTIONARY
  5
E
330
A
100
AcDbDictionary
281
1
  3
ByBlock
350
1F
  3
ByLayer
350
20
  3
Global
350
21
  0
DICTIONARY
  5
F
330
A
100
AcDbDictionary
281
1
  3
Standard
350
2C
  0
DICTIONARY
  5
10
330
A
100
AcDbDictionary
281
1
  3
Standard
350
22
  0
DICTIONARY
  5
11
330
A
100
AcDbDictionary
281
1
  0
ACDBDICTIONARYWDFLT
  5
12
330
A
100
AcDbDictionary
281
1
  3
Normal
350
13
100
AcDbDictionaryWithDefault
340
13
  0
ACDBPLACEHOLDER
  5
13
330
12
  0
DICTIONARY
  5
14
330
A
100
AcDbDictionary
281
1
  0
DICTIONARY
  5
15
330
A
100
AcDbDictionary
281
1
  0
DICTIONARY
  5
16
330
A
100
AcDbDictionary
281
1
  0
LAYOUT
  5
1A
330
D
100
AcDbPlotSettings
  1

  4
A3
  6

 40
7.5
 41
20.0
 42
7.5
 43
20.0
 44
420.0
 45
297.0
 46
0.0
 47
0.0
 48
0.0
 49
0.0
140
0.0
141
0.0
142
1.0
143
1.0
 70
1024
 72
1
 73
0
 74
5
  7

 75
16
 76
0
 77
2
 78
300
147
1.0
148
0.0
149
0.0
100
AcDbLayout
  1
Model
 70
1
 71
0
 10
0.0
 20
0.0
 11
420.0
 21
297.0
 12
0.0
 22
0.0
 32
0.0
 14
1e+20
 24
1e+20
 34
1e+20
 15
-1e+20
 25
-1e+20
 35
-1e+20
146
0.0
 13
0.0
 23
0.0
 33
0.0
 16
1.0
 26
0.0
 36
0.0
 17
0.0
 27
1.0
 37
0.0
 76
1
330
17
  0
LAYOUT
  5
1E
330
D
100
AcDbPlotSettings
  1

  4
A3
  6

 40
7.5
 41
20.0
 42
7.5
 43
20.0
 44
420.0
 45
297.0
 46
0.0
 47
0.0
 48
0.0
 49
0.0
140
0.0
141
0.0
142
1.0
143
1.0
 70
0
 72
1
 73
0
 74
5
  7

 75
16
 76
0
 77
2
 78
300
147
1.0
148
0.0
149
0.0
100
AcDbLayout
  1
Layout1
 70
1
 71
1
 10
0.0
 20
0.0
 11
420.0
 21
297.0
 12
0.0
 22
0.0
 32
0.0
 14
1e+20
 24
1e+20
 34
1e+20
 15
-1e+20
 25
-1e+20
 35
-1e+20
146
0.0
 13
0.0
 23
0.0
 33
0.0
 16
1.0
 26
0.0
 36
0.0
 17
0.0
 27
1.0
 37
0.0
 76
1
330
1B
  0
MATERIAL
  5
1F
102
{ACAD_REACTORS
330
E
102
}
330
E
100
AcDbMaterial
  1
ByBlock
  2

 70
0
 40
1.0
 71
1
 41
1.0
 91
-1023410177
 42
1.0
 72
1
  3

 73
1
 74
1
 75
1
 44
0.5
 73
0
 45
1.0
 46
1.0
 77
1
  4

 78
1
 79
1
170
1
 48
1.0
171
1
  6

172
1
173
1
174
1
140
1.0
141
1.0
175
1
  7

176
1
177
1
178
1
143
1.0
179
1
  8

270
1
271
1
272
1
145
1.0
146
1.0
273
1
  9

274
1
275
1
276
1
 42
1.0
 72
1
  3

 73
1
 74
1
 75
1
 94
63
  0
MATERIAL
  5
20
102
{ACAD_REACTORS
330
E
102
}
330
E
100
AcDbMaterial
  1
ByLayer
  2

 70
0
 40
1.0
 71
1
 41
1.0
 91
-1023410177
 42
1.0
 72
1
  3

 73
1
 74
1
 75
1
 44
0.5
 73
0
 45
1.0
 46
1.0
 77
1
  4

 78
1
 79
1
170
1
 48
1.0
171
1
  6

172
1
173
1
174
1
140
1.0
141
1.0
175
1
  7

176
1
177
1
178
1
143
1.0
179
1
  8

270
1
271
1
272
1
145
1.0
146
1.0
273
1
  9

274
1
275
1
276
1
 42
1.0
 72
1
  3

 73
1
 74
1
 75
1
 94
63
  0
MATERIAL
  5
21
102
{ACAD_REACTORS
330
E
102
}
330
E
100
AcDbMaterial
  1
Global
  2

 70
0
 40
1.0
 71
1
 41
1.0
 91
-1023410177
 42
1.0
 72
1
  3

 73
1
 74
1
 75
1
 44
0.5
 73
0
 45
1.0
 46
1.0
 77
1
  4

 78
1
 79
1
170
1
 48
1.0
171
1
  6

172
1
173
1
174
1
140
1.0
141
1.0
175
1
  7

176
1
177
1
178
1
143
1.0
179
1
  8

270
1
271
1
272
1
145
1.0
146
1.0
273
1
  9

274
1
275
1
276
1
 42
1.0
 72
1
  3

 73
1
 74
1
 75
1
 94
63
  0
MLINESTYLE
  5
22
102
{ACAD_REACTORS
330
10
102
}
330
10
100
AcDbMlineStyle
  2
Standard
 70
0
  3

 62
256
 51
90.0
 52
90.0
 71
2
 49
0.5
 62
256
  6
BYLAYER
 49
-0.5
 62
256
  6
BYLAYER
  0
MLEADERSTYLE
  5
2C
102
{ACAD_REACTORS
330
F
102
}
330
F
100
AcDbMLeaderStyle
179
2
170
2
171
1
172
0
 90
2
 40
0.0
 41
0.0
173
1
 91
-1056964608
 92
-2
290
1
 42
2.0
291
1
 43
8.0
  3
Standard
 44
4.0
300

342
29
174
1
175
1
176
0
178
1
 93
-1056964608
 45
4.0
292
0
297
0
 46
4.0
 94
-1056964608
 47
1.0
 49
1.0
140
1.0
294
1
141
0.0
177
0
142
1.0
295
0
296
0
143
3.75
271
0
272
9
273
9
  0
DICTIONARY
  5
2D
330
A
100
AcDbDictionary
280
1
281
1
  3
CREATED_BY_EZDXF
350
2E
  3
WRITTEN_BY_EZDXF
350
BD
  0
DICTIONARYVAR
  5
2E
330
2D
100
DictionaryVariables
280
0
  1
1.4.4 @ 2026-09-01T09:20:48.712342+00:00
  0
DICTIONARYVAR
  5
BD
330
2D
100
DictionaryVariables
280
0
  1
1.4.4 @ 2026-09-01T09:20:48.726684+00:00
  0
ENDSEC
  0
EOF
